<?xml version="1.0" encoding="UTF-8"?>
<svg width="253px" height="41px" viewBox="0 0 253 41" version="1.1" xmlns="http://www.w3.org/2000/svg" xmlns:xlink="http://www.w3.org/1999/xlink">
    <title>logo-ttd-line</title>
    <g id="Marketing" stroke="none" stroke-width="1" fill="none" fill-rule="evenodd">
        <g id="Home" transform="translate(-55.000000, -59.000000)">
            <g id="Nav" transform="translate(55.000000, 56.000000)">
                <g id="logo-ttd-line" transform="translate(0.000000, 3.000000)">
                    <polygon id="Fill-1" fill="#262262" points="9.20805382e-15 41 86.7150816 41 86.7150816 0 9.20805382e-15 0"></polygon>
                    <polygon id="Fill-9" fill="#A6B0B5" points="91.2222857 41 195.110878 41 195.110878 0 91.2222857 0"></polygon>
                    <polygon id="Fill-16" fill="#2E5E98" points="199.618082 41 252.411204 41 252.411204 0 199.618082 0"></polygon>
                    <path d="M234.183594,15.8467562 C236.345186,15.8467562 237.98841,16.4873812 239.113267,17.7737562 C239.623859,18.3708187 240.038553,19.1216312 240.357349,20.0287562 C240.678737,20.9384437 240.839431,21.8378812 240.839431,22.7270687 C240.839431,24.7463187 240.21739,26.4093812 238.973308,27.7162562 C237.731818,29.0231312 236.145614,29.6791312 234.227655,29.6791312 C232.239716,29.6791312 230.640553,29.0410687 229.430165,27.7649437 C228.219778,26.4888187 227.613288,24.8052562 227.613288,22.7142562 C227.613288,20.6488812 228.214594,18.9883812 229.417206,17.7327562 C230.617227,16.4745687 232.208614,15.8467562 234.183594,15.8467562 Z M34.1884,15.8465 C36.0078694,15.8465 37.3115633,16.230875 38.0994816,17.0021875 C38.8874,17.7735 39.283951,19.0445 39.283951,20.8151875 L39.283951,29.443125 L36.7620939,29.443125 L36.7620939,28.1080625 C35.6294612,29.156125 34.299849,29.678875 32.7680735,29.678875 C31.2933184,29.678875 30.1114408,29.3073125 29.2250327,28.5641875 C28.3386245,27.8210625 27.8954204,26.8345 27.8954204,25.6045 C27.8954204,24.2181875 28.4371143,23.1163125 29.5179102,22.29375 C30.5987061,21.47375 32.0553184,21.0611875 33.8825633,21.0611875 L36.7620939,21.0611875 L36.7620939,19.920875 C36.7620939,18.5243125 35.9016041,17.8273125 34.1754408,17.8273125 C32.5399918,17.8273125 31.5421347,18.3449375 31.1818694,19.38275 L28.5070939,19.38275 C28.6289102,17.02525 30.5235429,15.8465 34.1884,15.8465 Z M23.3436367,11.3459812 L23.3436367,13.7675437 L18.3180653,13.7675437 L18.3180653,29.4449187 L15.6458816,29.4449187 L15.6458816,13.7675437 L10.6902898,13.7675437 L10.6902898,11.3459812 L23.3436367,11.3459812 Z M114.5667,11.3459812 L114.5667,13.7675437 L109.541129,13.7675437 L109.541129,29.4449187 L106.868945,29.4449187 L106.868945,13.7675437 L101.913353,13.7675437 L101.913353,11.3459812 L114.5667,11.3459812 Z M213.805018,11.3459812 C216.300957,11.3459812 218.405529,12.1634187 220.126508,13.7957312 C221.062161,14.6951687 221.798243,15.7586062 222.324386,16.9886062 C222.855712,18.2186062 223.117488,19.4742312 223.117488,20.7606062 C223.117488,23.3000437 222.223304,25.4448562 220.429753,27.1873562 C218.882427,28.6915437 216.785631,29.4449187 214.152324,29.4449187 L211.855957,29.4449187 L211.855957,11.3459812 L213.805018,11.3459812 Z M50.7261327,9.96889375 L50.7261327,24.5725812 C50.7261327,26.3688937 51.7136224,27.2683312 53.6911939,27.2683312 L55.8346429,27.2683312 L55.8346429,29.4438937 L52.9525204,29.4438937 C51.2911531,29.4438937 50.0833571,29.0031437 49.3343163,28.1216437 C48.5800918,27.2427062 48.2042755,25.8333312 48.2042755,23.8986437 L48.2042755,9.96889375 L50.7261327,9.96889375 Z M66.2771531,9.96889375 L66.2771531,20.9107687 L71.4971122,16.0804562 L75.0764388,16.0804562 L68.6149898,21.8614562 L75.6881122,29.4438937 L72.1502551,29.4438937 L66.2771531,23.1119562 L66.2771531,29.4438937 L63.7552959,29.4438937 L63.7552959,9.96889375 L66.2771531,9.96889375 Z M122.614094,9.96889375 L122.614094,17.2079562 C123.689706,16.3008312 124.983033,15.8447062 126.496665,15.8447062 C127.75889,15.8447062 128.8034,16.2547062 129.630196,17.0695812 C130.13042,17.5743937 130.472543,18.1150812 130.659155,18.6890812 C130.845767,19.2605187 130.936482,20.0625812 130.936482,21.0901437 L130.936482,29.4438937 L128.417216,29.4438937 L128.417216,20.8005812 C128.417216,19.0298937 127.593012,18.1432687 125.93942,18.1432687 C124.975257,18.1432687 124.17438,18.4430812 123.531604,19.0401437 C123.171339,19.3783937 122.925114,19.7448312 122.800706,20.1394562 C122.673706,20.5340812 122.614094,21.1260187 122.614094,21.9152687 L122.614094,29.4438937 L120.092237,29.4438937 L120.092237,9.96889375 L122.614094,9.96889375 Z M160.659406,15.8467562 C162.191182,15.8467562 163.411937,16.2926312 164.326855,17.1818187 C165.239182,18.0710062 165.697937,19.2600062 165.697937,20.7462562 L165.697937,29.4433812 L163.178671,29.4433812 L163.178671,20.5540687 C163.178671,19.7622562 162.932447,19.1472562 162.439998,18.7013812 C161.950141,18.2580687 161.255529,18.0351312 160.366529,18.0351312 C159.132814,18.0351312 158.137549,18.4143812 157.380733,19.1754437 C156.623916,19.9390687 156.245508,20.9384437 156.245508,22.1761312 L156.245508,29.4433812 L153.726243,29.4433812 L153.726243,16.0799437 L156.245508,16.0799437 L156.245508,17.6071937 C157.424794,16.4335687 158.894365,15.8467562 160.659406,15.8467562 Z M174.665951,9.96889375 L174.665951,20.9107687 L179.88591,16.0804562 L183.465237,16.0804562 L177.003788,21.8614562 L184.07691,29.4438937 L180.539053,29.4438937 L174.665951,23.1119562 L174.665951,29.4438937 L172.144094,29.4438937 L172.144094,9.96889375 L174.665951,9.96889375 Z M144.912184,16.0796875 L144.912184,29.443125 L142.24,29.443125 L142.24,18.598625 L137.896082,18.598625 L137.896082,16.0796875 L144.912184,16.0796875 Z M234.339104,17.7865687 C233.058737,17.7865687 232.045329,18.2324437 231.301471,19.1216312 C230.560206,20.0108187 230.186982,21.2126312 230.186982,22.7270687 C230.186982,24.2696937 230.552431,25.4894437 231.275553,26.3888812 C232.001267,27.2883187 232.983573,27.7367562 234.227655,27.7367562 C235.461369,27.7367562 236.443676,27.2960062 237.171982,26.4170687 C237.900288,25.5355687 238.263145,24.3465687 238.263145,22.8526312 C238.263145,21.2638812 237.918431,20.0236312 237.22641,19.1293187 C236.536982,18.2324437 235.572818,17.7865687 234.339104,17.7865687 Z M36.7620939,23.0855625 L33.4911959,23.0855625 C32.5840531,23.0855625 31.8505633,23.3008125 31.3010939,23.7313125 C30.7490327,24.164375 30.4691143,24.73325 30.4691143,25.4379375 C30.4691143,26.091375 30.6920122,26.6295 31.1326245,27.0574375 C31.5732367,27.4828125 32.1382571,27.6955 32.822502,27.6955 C33.9266245,27.6955 34.8622776,27.3393125 35.6242776,26.6218125 C36.3836857,25.906875 36.7620939,25.025375 36.7620939,23.979875 L36.7620939,23.0855625 Z M214.528141,13.7803562 L214.528141,27.0079812 C216.300957,27.0079812 217.726467,26.4314187 218.809855,25.2808562 C219.888059,24.1277312 220.429753,22.6081687 220.429753,20.7170437 C220.429753,18.8643562 219.843998,17.2448562 218.664712,15.8585437 C217.485427,14.4747937 216.106569,13.7803562 214.528141,13.7803562 Z M144.914776,9.968125 L144.914776,13.3121875 L141.099592,13.3121875 L141.099592,9.968125 L144.914776,9.968125 Z" id="Combined-Shape" fill="#FFFFFF"></path>
                </g>
            </g>
        </g>
    </g>
</svg>