<?xml version="1.0" encoding="UTF-8"?>
<svg width="232px" height="54px" viewBox="0 0 232 54" version="1.1" xmlns="http://www.w3.org/2000/svg" xmlns:xlink="http://www.w3.org/1999/xlink">
    <title>MS</title>
    <defs>
        <polygon id="path-1" points="0 54 232 54 232 0 0 0"></polygon>
    </defs>
    <g id="Marketing" stroke="none" stroke-width="1" fill="none" fill-rule="evenodd">
        <g id="Home" transform="translate(-234.000000, -4130.000000)">
            <g id="Footer" transform="translate(0.000000, 4088.000000)">
                <g id="MS" transform="translate(234.000000, 42.000000)">
                    <path d="M17.1105598,24.2173516 L15.1455019,24.2173516 L15.1455019,12.6130358 C15.1455019,11.6973095 15.1998069,10.5809305 15.3095367,9.26333053 L15.2625097,9.26333053 C15.0755212,10.0432042 14.9075676,10.6008253 14.7597683,10.9378989 L9.0403861,24.2173516 L8.08137066,24.2173516 L2.35079151,11.0345305 C2.19459459,10.6815411 2.02776062,10.0909516 1.84805019,9.26333053 L1.80102317,9.26333053 C1.86372587,9.95453053 1.89451737,11.0794358 1.89451737,12.6374779 L1.89451737,24.2173516 L0,24.2173516 L0,6.93735158 L2.59656371,6.93735158 L7.74266409,18.9878779 C8.1323166,19.9036042 8.38592664,20.5948042 8.50237452,21.0603411 L8.58467181,21.0603411 C8.97488417,19.95192 9.24361004,19.2448042 9.39140927,18.9395621 L14.6427606,6.93735158 L17.1105598,6.93735158 L17.1105598,24.2173516 Z" id="Fill-1" fill="#080808"></path>
                    <path d="M22.8972915,7.45569474 C22.8972915,7.82573684 22.7730058,8.13325263 22.5227548,8.37767368 C22.2730637,8.62266316 21.9774653,8.74487368 21.6342799,8.74487368 C21.2832568,8.74487368 20.9865386,8.62721053 20.7452452,8.38961053 C20.5039517,8.15314737 20.3824653,7.84108421 20.3824653,7.45569474 C20.3824653,7.11066316 20.5011525,6.81110526 20.7396467,6.55815789 C20.9775811,6.30464211 21.2759788,6.17845263 21.6342799,6.17845263 C21.9925811,6.17845263 22.2932181,6.30293684 22.5345116,6.55190526 C22.7763649,6.80144211 22.8972915,7.10270526 22.8972915,7.45569474 L22.8972915,7.45569474 Z M20.651751,24.2172947 L22.5697819,24.2172947 L22.5697819,11.8780105 L20.651751,11.8780105 L20.651751,24.2172947 Z" id="Fill-3" fill="#080808"></path>
                    <path d="M33.9244015,23.6510337 C32.9961776,24.2291179 31.9011197,24.5184442 30.6381081,24.5184442 C29.5464093,24.5184442 28.5655598,24.2598126 27.6966795,23.7414126 C26.8272394,23.2230126 26.1503861,22.4908863 25.6672394,21.5421916 C25.1835328,20.5946337 24.9422394,19.5299811 24.9422394,18.3488021 C24.9422394,16.3093074 25.5093629,14.6699811 26.6441699,13.4325284 C27.778417,12.1956442 29.2888803,11.5766337 31.1761197,11.5766337 C32.2202317,11.5766337 33.1439768,11.7858126 33.9479151,12.2036021 L33.9479151,14.2277495 C33.0504826,13.5860021 32.0998649,13.2637074 31.0938224,13.2637074 C29.8543243,13.2637074 28.8460425,13.7201495 28.0706564,14.6313284 C27.2947104,15.5436442 26.9072973,16.7219811 26.9072973,18.1680442 C26.9072973,19.6067179 27.2756757,20.74356 28.0124324,21.5785705 C28.7491892,22.4141495 29.7373166,22.8313705 30.9773745,22.8313705 C32.0214865,22.8313705 33.0040154,22.4789495 33.9244015,21.7712653 L33.9244015,23.6510337 Z" id="Fill-5" fill="#080808"></path>
                    <path d="M42.4713398,13.8783979 C42.1281544,13.6135137 41.6410888,13.4805032 41.009583,13.4805032 C40.1591776,13.4805032 39.468888,13.8931768 38.9392741,14.7156821 C38.4091004,15.5393242 38.1437336,16.6102295 38.1437336,17.9272611 L38.1437336,24.2174084 L36.2262625,24.2174084 L36.2262625,11.8781242 L38.1437336,11.8781242 L38.1437336,14.4206716 L38.1907606,14.4206716 C38.4555676,13.5691768 38.8648147,12.8961663 39.4190618,12.4022084 C39.9721892,11.9082505 40.6076139,11.6609874 41.3253359,11.6609874 C41.8241583,11.6609874 42.205973,11.7178295 42.4713398,11.8298084 L42.4713398,13.8783979 Z" id="Fill-7" fill="#080808"></path>
                    <path d="M54.5268861,17.9995642 C54.5268861,19.9600484 53.987195,21.53628 52.9072529,22.7293958 C51.826751,23.9219432 50.3789903,24.5187853 48.5622915,24.5187853 C46.7920598,24.5187853 45.3795695,23.9384274 44.3225811,22.7771432 C43.2655927,21.6169958 42.7376583,20.0885116 42.7376583,18.1922589 C42.7376583,16.1521958 43.2801486,14.5395853 44.3634498,13.3544274 C45.4473108,12.1698379 46.9404189,11.5769747 48.8427741,11.5769747 C50.6208436,11.5769747 52.0126197,12.1493747 53.0181023,13.2941747 C54.0241448,14.4389747 54.5268861,16.0078168 54.5268861,17.9995642 M52.5618282,18.0717537 C52.5618282,16.5216695 52.2287201,15.3331011 51.561944,14.5049116 C50.8957278,13.6778589 49.9423108,13.2640484 48.7022529,13.2640484 C47.4705927,13.2640484 46.4964614,13.6880905 45.7787394,14.5350379 C45.0610174,15.3831221 44.7027162,16.5773747 44.7027162,18.1200695 C44.7027162,19.5985326 45.0638166,20.7529958 45.7843378,21.5845958 C46.5054189,22.4156274 47.4789903,22.8317116 48.7022529,22.8317116 C49.9495888,22.8317116 50.9052452,22.42188 51.5681023,21.6022168 C52.2303996,20.7831221 52.5618282,19.6064905 52.5618282,18.0717537" id="Fill-9" fill="#080808"></path>
                    <path d="M63.4363803,20.9156779 C63.4363803,21.9848779 63.0372104,22.8522884 62.237751,23.5184779 C61.4382915,24.1858042 60.3762645,24.5183305 59.0505502,24.5183305 C57.920222,24.5183305 56.9292954,24.2699305 56.0800097,23.7714253 L56.0800097,21.6506463 C57.0227896,22.4384779 58.0607432,22.8318253 59.1910714,22.8318253 C60.7110521,22.8318253 61.4713224,22.25772 61.4713224,21.1083726 C61.4713224,20.6428358 61.3235232,20.2631305 61.026805,19.9698253 C60.7306467,19.6770884 60.0565927,19.2808989 59.0035232,18.7829621 C57.9437355,18.3168568 57.195222,17.8172147 56.7579826,17.2823305 C56.3213031,16.7491516 56.1035232,16.0397621 56.1035232,15.1558674 C56.1035232,14.1355516 56.5010135,13.2846253 57.2959942,12.6008147 C58.0915347,11.9187095 59.1014961,11.5770884 60.3253185,11.5770884 C61.2686583,11.5770884 62.1224228,11.7697832 62.886612,12.1551726 L62.886612,14.1435095 C62.1073069,13.5574674 61.2025965,13.2635937 60.1730405,13.2635937 C59.5415347,13.2635937 59.033195,13.4250253 58.6469015,13.7456147 C58.261168,14.0679095 58.0680212,14.4811516 58.0680212,14.9870463 C58.0680212,15.5332989 58.2158205,15.9533621 58.5125386,16.2460989 C58.8092568,16.5399726 59.4206081,16.8872779 60.348832,17.2885832 C61.4875579,17.7870884 62.2858977,18.3094674 62.7460907,18.8551516 C63.2068436,19.4014042 63.4363803,20.0886253 63.4363803,20.9156779" id="Fill-11" fill="#080808"></path>
                    <path d="M76.5210907,17.9995642 C76.5210907,19.9600484 75.9813996,21.53628 74.9014575,22.7293958 C73.8209556,23.9219432 72.373195,24.5187853 70.5564961,24.5187853 C68.7862645,24.5187853 67.3737741,23.9384274 66.3167857,22.7771432 C65.2597973,21.6169958 64.7318629,20.0885116 64.7318629,18.1922589 C64.7318629,16.1521958 65.2743533,14.5395853 66.3576544,13.3544274 C67.4415154,12.1698379 68.9351834,11.5769747 70.8369788,11.5769747 C72.6150483,11.5769747 74.0068243,12.1493747 75.0123069,13.2941747 C76.0183494,14.4389747 76.5210907,16.0078168 76.5210907,17.9995642 M74.5560328,18.0717537 C74.5560328,16.5216695 74.2229247,15.3331011 73.5561486,14.5049116 C72.8899324,13.6778589 71.9365154,13.2640484 70.6970174,13.2640484 C69.4647973,13.2640484 68.490666,13.6880905 67.772944,14.5350379 C67.055222,15.3831221 66.6969208,16.5773747 66.6969208,18.1200695 C66.6969208,19.5985326 67.0580212,20.7529958 67.7785425,21.5845958 C68.4996236,22.4156274 69.473195,22.8317116 70.6970174,22.8317116 C71.9437934,22.8317116 72.9000097,22.42188 73.5623069,21.6022168 C74.2246042,20.7831221 74.5560328,19.6064905 74.5560328,18.0717537" id="Fill-13" fill="#080808"></path>
                    <path d="M84.3788031,7.68465474 C84.0048263,7.46751789 83.5793436,7.35951789 83.1040347,7.35951789 C81.7620849,7.35951789 81.0925097,8.23147579 81.0925097,9.97425474 L81.0925097,11.8778968 L83.8990154,11.8778968 L83.8990154,13.5530337 L81.0925097,13.5530337 L81.0925097,24.2171811 L79.1744788,24.2171811 L79.1744788,13.5530337 L77.1394402,13.5530337 L77.1394402,11.8778968 L79.1744788,11.8778968 L79.1744788,9.87762316 C79.1744788,8.62482316 79.5327799,7.61246526 80.2505019,6.84111789 C80.9671042,6.06977053 81.8790927,5.68438105 82.987027,5.68438105 C83.5720656,5.68438105 84.0356178,5.75657053 84.3788031,5.90094947 L84.3788031,7.68465474 Z" id="Fill-15" fill="#080808"></path>
                    <path d="M91.3466409,24.0968463 C90.8864479,24.3617305 90.2857336,24.4947411 89.5461776,24.4947411 C87.4551544,24.4947411 86.4116023,23.2817305 86.4116023,20.8551411 L86.4116023,13.5532042 L84.3530502,13.5532042 L84.3530502,11.8780674 L86.4116023,11.8780674 L86.4116023,8.86543579 L88.3296332,8.22709895 L88.3296332,11.8780674 L91.3466409,11.8780674 L91.3466409,13.5532042 L88.3296332,13.5532042 L88.3296332,20.5180674 C88.3296332,21.3462568 88.4656757,21.9340042 88.7383205,22.2835832 C89.0115251,22.6325937 89.4672394,22.8076674 90.1071429,22.8076674 C90.5824517,22.8076674 90.9961776,22.6746568 91.3466409,22.4097726 L91.3466409,24.0968463 Z" id="Fill-17" fill="#080808"></path>
                    <path d="M29.9847683,35.8921516 C29.9847683,37.5638779 29.4249228,38.9104674 28.3063514,39.9347621 C27.1872201,40.9590568 25.719305,41.4712042 23.903166,41.4712042 L21.6928958,41.4712042 L21.6928958,48.0142989 L19.7278378,48.0142989 L19.7278378,30.7348674 L24.3359266,30.7348674 C26.1285521,30.7348674 27.5186486,31.1867621 28.5050965,32.0905516 C29.4909846,32.9943411 29.9847683,34.26192 29.9847683,35.8921516 M27.9262162,36.00072 C27.9262162,33.71112 26.6167375,32.56632 23.9966602,32.56632 L21.6928958,32.56632 L21.6928958,39.6516884 L23.750888,39.6516884 C25.099556,39.6516884 26.132471,39.3367832 26.8501931,38.7058358 C27.5673552,38.0760253 27.9262162,37.1739411 27.9262162,36.00072" id="Fill-19" fill="#080808"></path>
                    <path d="M39.9936313,48.0145263 L38.0756004,48.0145263 L38.0756004,46.0864421 L38.0285734,46.0864421 C37.1944035,47.5728632 35.9661023,48.3157895 34.3447896,48.3157895 C33.190388,48.3157895 32.266083,47.9929263 31.5729942,47.3460632 C30.8787857,46.6992 30.5316815,45.8300842 30.5316815,44.7370105 C30.5316815,42.4394526 31.8495579,41.0979789 34.484751,40.7120211 L38.0756004,40.1941895 C38.0756004,38.1058105 37.2526274,37.0610526 35.6078012,37.0610526 C34.1650792,37.0610526 32.8628784,37.5635368 31.7017587,38.5673684 L31.7017587,36.5426526 C32.052222,36.2698105 32.6523764,36.0066316 33.5027819,35.7536842 C34.3520676,35.5007368 35.1084189,35.3739789 35.7712761,35.3739789 C38.5861795,35.3739789 39.9936313,36.9126947 39.9936313,39.9889895 L39.9936313,48.0145263 L39.9936313,48.0145263 Z M38.0756004,41.7726947 L35.1750405,42.1944632 C34.1841139,42.3388421 33.4910251,42.5826947 33.0929749,42.9231789 C32.6954846,43.2653684 32.4967394,43.8178737 32.4967394,44.5801263 C32.4967394,45.1991368 32.7106004,45.6948 33.1400019,46.0682526 C33.5688436,46.4422737 34.1180521,46.6287158 34.7893069,46.6287158 C35.7399247,46.6287158 36.5259479,46.2836842 37.1456969,45.5924842 C37.7654459,44.9024211 38.0756004,44.0378526 38.0756004,43.0016211 L38.0756004,41.7726947 Z" id="Fill-21" fill="#080808"></path>
                    <path d="M49.2538687,37.6756295 C48.9106834,37.4107453 48.4236178,37.2777347 47.792112,37.2777347 C46.9422664,37.2777347 46.2525367,37.6904084 45.7218031,38.5129137 C45.1916293,39.3365558 44.9268224,40.4074611 44.9268224,41.7244926 L44.9268224,48.01464 L43.0087915,48.01464 L43.0087915,35.6753558 L44.9268224,35.6753558 L44.9268224,38.2179032 L44.9732896,38.2179032 C45.2380965,37.3664084 45.6473436,36.6933979 46.2015907,36.19944 C46.755278,35.7054821 47.3901429,35.4582189 48.1078649,35.4582189 C48.6066873,35.4582189 48.9890618,35.5150611 49.2538687,35.62704 L49.2538687,37.6756295 Z" id="Fill-23" fill="#080808"></path>
                    <path d="M58.1918031,47.8940779 C57.73161,48.1589621 57.1308958,48.2919726 56.3907799,48.2919726 C54.3003166,48.2919726 53.2562046,47.0789621 53.2562046,44.6523726 L53.2562046,37.3504358 L51.1976525,37.3504358 L51.1976525,35.6752989 L53.2562046,35.6752989 L53.2562046,32.6626674 L55.1742355,32.0243305 L55.1742355,35.6752989 L58.1918031,35.6752989 L58.1918031,37.3504358 L55.1742355,37.3504358 L55.1742355,44.3152989 C55.1742355,45.14292 55.310278,45.7312358 55.5834826,46.0808147 C55.8561274,46.4298253 56.3124015,46.6048989 56.952305,46.6048989 C57.4276139,46.6048989 57.8407799,46.4718884 58.1918031,46.2070042 L58.1918031,47.8940779 Z" id="Fill-25" fill="#080808"></path>
                    <path d="M70.8137452,48.0145263 L68.8957143,48.0145263 L68.8957143,40.9774737 C68.8957143,38.3667158 67.9674903,37.0610526 66.1121622,37.0610526 C65.1688224,37.0610526 64.3794402,37.4288211 63.7440154,38.1637895 C63.1080309,38.8987579 62.7905985,39.8366526 62.7905985,40.9774737 L62.7905985,48.0145263 L60.8725676,48.0145263 L60.8725676,35.6752421 L62.7905985,35.6752421 L62.7905985,37.7238316 L62.8376255,37.7238316 C63.7339382,36.1572632 65.0439768,35.3739789 66.7671815,35.3739789 C68.0844981,35.3739789 69.088861,35.8162105 69.7785907,36.6995368 C70.4688803,37.5834316 70.8137452,38.8368 70.8137452,40.4590737 L70.8137452,48.0145263 Z" id="Fill-27" fill="#080808"></path>
                    <path d="M83.3612838,42.3390126 L74.9053764,42.3390126 C74.936168,43.7288021 75.2933494,44.7911811 75.9758012,45.5261495 C76.6571332,46.2611179 77.6027124,46.6288863 78.8119788,46.6288863 C80.1684846,46.6288863 81.4040637,46.1792653 82.5192761,45.2794547 L82.5192761,47.1228442 C81.4740444,47.9180653 80.0867471,48.31596 78.3557046,48.31596 C76.6481757,48.31596 75.3146236,47.7475389 74.3556081,46.6106968 C73.3965927,45.4744232 72.9173649,43.9021705 72.9173649,41.8933705 C72.9173649,40.6724021 73.1569788,39.5577284 73.6367664,38.5493495 C74.1159942,37.5415389 74.776612,36.75996 75.6191795,36.2057495 C76.4611873,35.6509705 77.3966892,35.3741495 78.4256853,35.3741495 C79.9770174,35.3741495 81.1874035,35.8948232 82.0574035,36.9344653 C82.9262838,37.9752442 83.3612838,39.4315389 83.3612838,41.3027811 L83.3612838,42.3390126 L83.3612838,42.3390126 Z M81.3967857,40.6638758 C81.3805502,39.5236232 81.1135039,38.6380232 80.5950869,38.0070758 C80.0766699,37.3766968 79.3455116,37.0612232 78.4027317,37.0612232 C77.5136969,37.0612232 76.7534266,37.3909074 76.1219208,38.0491389 C75.4904151,38.7085074 75.0923649,39.5793284 74.92889,40.6638758 L81.3967857,40.6638758 Z" id="Fill-29" fill="#080808"></path>
                    <path d="M91.8145598,37.6756295 C91.4713745,37.4107453 90.983749,37.2777347 90.3528031,37.2777347 C89.5023977,37.2777347 88.8121081,37.6904084 88.2824942,38.5129137 C87.7523205,39.3365558 87.4869537,40.4074611 87.4869537,41.7244926 L87.4869537,48.01464 L85.5689228,48.01464 L85.5689228,35.6753558 L87.4869537,35.6753558 L87.4869537,38.2179032 L87.5339807,38.2179032 C87.7993475,37.3664084 88.2080347,36.6933979 88.7622819,36.19944 C89.3148494,35.7054821 89.9502741,35.4582189 90.6679961,35.4582189 C91.1668185,35.4582189 91.5491931,35.5150611 91.8145598,35.62704 L91.8145598,37.6756295 Z" id="Fill-31" fill="#080808"></path>
                    <line x1="101.332046" y1="0" x2="101.332046" y2="54" id="Stroke-33" stroke="#000000" stroke-width="0.5"></line>
                    <path d="M117.480064,9.68271158 C116.850237,10.0470695 116.150431,10.2289642 115.380643,10.2289642 C114.794485,10.2289642 114.271029,10.0942484 113.810276,9.82481684 C113.352882,9.55538526 112.99962,9.17511158 112.752168,8.68342737 C112.504156,8.19231158 112.380431,7.63696421 112.380431,7.01852211 C112.380431,6.04140632 112.684986,5.23481684 113.294098,4.59818526 C113.90377,3.96155368 114.683635,3.64323789 115.634253,3.64323789 C116.316705,3.64323789 116.889427,3.75578526 117.352979,3.98088 L117.352979,4.80679579 C116.845759,4.47824842 116.245044,4.31397474 115.551396,4.31397474 C115.093442,4.31397474 114.680836,4.42652211 114.313577,4.65104842 C113.949118,4.87330105 113.663037,5.18877474 113.455894,5.59746947 C113.25211,6.00559579 113.150218,6.46033263 113.150218,6.96054316 C113.150218,7.76258526 113.356801,8.39637474 113.771087,8.86134316 C114.188172,9.32290105 114.755295,9.55368 115.472458,9.55368 C115.959523,9.55368 116.383886,9.45306947 116.744986,9.25184842 L116.744986,7.47098526 L115.371685,7.47098526 L115.371685,6.79626947 L117.480064,6.79626947 L117.480064,9.68271158" id="Fill-35" fill="#856A1A"></path>
                    <path d="M122.172857,7.85307789 C122.172857,7.28181474 122.047452,6.84356211 121.796641,6.53832 C121.548629,6.23364632 121.193127,6.08130947 120.729575,6.08130947 C120.268822,6.08130947 119.904363,6.23819368 119.636197,6.55196211 C119.368031,6.86288842 119.233668,7.30227789 119.233668,7.87069895 C119.233668,8.41581474 119.368031,8.84213053 119.636197,9.14964632 C119.907162,9.45488842 120.271622,9.60722526 120.729575,9.60722526 C121.195927,9.60722526 121.553108,9.45602526 121.80112,9.15419368 C122.049131,8.85236211 122.172857,8.41865684 122.172857,7.85307789 M122.907375,7.82636211 C122.907375,8.54882526 122.70527,9.13032 122.299942,9.57141474 C121.897413,10.0096674 121.356602,10.2290779 120.67695,10.2290779 C120.015212,10.2290779 119.486158,10.01592 119.089228,9.58960421 C118.695656,9.15987789 118.499151,8.59600421 118.499151,7.89741474 C118.499151,7.14539368 118.701255,6.55196211 119.106583,6.11655158 C119.511911,5.67886737 120.070637,5.45945684 120.782201,5.45945684 C121.446737,5.45945684 121.967394,5.67090947 122.34361,6.09438316 C122.719826,6.51501474 122.907375,7.09196211 122.907375,7.82636211" id="Fill-37" fill="#856A1A"></path>
                    <mask id="mask-2" fill="white">
                        <use xlink:href="#path-1"></use>
                    </mask>
                    <g id="Clip-40"></g>
                    <polygon id="Fill-39" fill="#856A1A" mask="url(#mask-2)" points="124.017548 10.1178947 124.73471 10.1178947 124.73471 3.38551579 124.017548 3.38551579"></polygon>
                    <path d="M129.255575,8.06180211 L129.255575,7.39106526 C129.255575,7.01533895 129.131849,6.70270737 128.883838,6.45430737 C128.638625,6.20533895 128.340228,6.08142316 127.986965,6.08142316 C127.555884,6.08142316 127.213259,6.24399158 126.959089,6.56969684 C126.705479,6.89256 126.578954,7.34104421 126.578954,7.91514947 C126.578954,8.43639158 126.698201,8.84906526 126.937255,9.15430737 C127.176309,9.45613895 127.49878,9.60733895 127.904108,9.60733895 C128.29768,9.60733895 128.62127,9.46239158 128.87488,9.17192842 C129.12849,8.88203368 129.255575,8.51199158 129.255575,8.06180211 L129.255575,8.06180211 Z M129.972737,10.1177811 L129.255575,10.1177811 L129.255575,9.34529684 L129.23822,9.34529684 C128.905672,9.93418105 128.392293,10.2291916 127.698645,10.2291916 C127.132641,10.2291916 126.682525,10.0234232 126.347178,9.61188632 C126.01183,9.19693895 125.843876,8.64500211 125.843876,7.95550737 C125.843876,7.20348632 126.029185,6.59925474 126.399243,6.14338105 C126.77266,5.68750737 127.271483,5.45957053 127.895151,5.45957053 C128.507622,5.45957053 128.955498,5.70512842 129.23822,6.19681263 L129.255575,6.19681263 L129.255575,3.38540211 L129.972737,3.38540211 L129.972737,10.1177811 Z" id="Fill-41" fill="#856A1A" mask="url(#mask-2)"></path>
                    <path d="M136.72677,7.66214526 L135.742562,4.95305053 C135.719608,4.88825053 135.686017,4.74444 135.642349,4.52275579 L135.624434,4.52275579 C135.598122,4.70919789 135.56621,4.85244 135.528141,4.95305053 L134.55289,7.66214526 L136.72677,7.66214526 M138.445496,10.1177242 L137.632041,10.1177242 L136.971423,8.33686105 L134.308237,8.33686105 L133.68289,10.1177242 L132.868875,10.1177242 L135.266133,3.74970316 L136.026963,3.74970316 L138.445496,10.1177242" id="Fill-42" fill="#856A1A" mask="url(#mask-2)"></path>
                    <path d="M142.657494,7.69767158 C142.657494,7.20598737 142.543846,6.81377684 142.316548,6.52104 C142.088691,6.22773474 141.775178,6.08108211 141.376008,6.08108211 C140.965081,6.08108211 140.630853,6.22602947 140.374444,6.51649263 C140.118035,6.80638737 139.98927,7.17642947 139.98927,7.62661895 L139.98927,8.26154526 C139.98927,8.64352421 140.111876,8.96354526 140.357089,9.22104 C140.604541,9.47853474 140.909656,9.60699789 141.270757,9.60699789 C141.702398,9.60699789 142.040544,9.43874526 142.285757,9.10110316 C142.533768,8.76346105 142.657494,8.29565053 142.657494,7.69767158 M143.392012,7.70676632 C143.392012,8.47640842 143.207263,9.08916632 142.836645,9.54504 C142.466587,10.0009137 141.970564,10.2288505 141.349695,10.2288505 C140.760737,10.2288505 140.313421,9.97419789 140.007185,9.46489263 L139.98927,9.46489263 L139.98927,12.2092295 L139.272108,12.2092295 L139.272108,5.57064 L139.98927,5.57064 L139.98927,6.36984 L140.007185,6.36984 C140.359888,5.76276632 140.876066,5.45922947 141.555158,5.45922947 C142.115004,5.45922947 142.561201,5.66101895 142.893749,6.06346105 C143.226297,6.46590316 143.392012,7.01386105 143.392012,7.70676632" id="Fill-43" fill="#856A1A" mask="url(#mask-2)"></path>
                    <path d="M147.879734,7.69767158 C147.879734,7.20598737 147.766085,6.81377684 147.538788,6.52104 C147.310931,6.22773474 146.997417,6.08108211 146.598247,6.08108211 C146.18732,6.08108211 145.853093,6.22602947 145.596683,6.51649263 C145.340274,6.80638737 145.21151,7.17642947 145.21151,7.62661895 L145.21151,8.26154526 C145.21151,8.64352421 145.334116,8.96354526 145.579328,9.22104 C145.82678,9.47853474 146.131896,9.60699789 146.492996,9.60699789 C146.924637,9.60699789 147.262784,9.43874526 147.507996,9.10110316 C147.756008,8.76346105 147.879734,8.29565053 147.879734,7.69767158 M148.614251,7.70676632 C148.614251,8.47640842 148.429502,9.08916632 148.058884,9.54504 C147.688826,10.0009137 147.192803,10.2288505 146.571934,10.2288505 C145.982977,10.2288505 145.53566,9.97419789 145.229425,9.46489263 L145.21151,9.46489263 L145.21151,12.2092295 L144.494347,12.2092295 L144.494347,5.57064 L145.21151,5.57064 L145.21151,6.36984 L145.229425,6.36984 C145.582127,5.76276632 146.098305,5.45922947 146.777398,5.45922947 C147.337243,5.45922947 147.78344,5.66101895 148.115988,6.06346105 C148.448537,6.46590316 148.614251,7.01386105 148.614251,7.70676632" id="Fill-44" fill="#856A1A" mask="url(#mask-2)"></path>
                    <polygon id="Fill-45" fill="#856A1A" mask="url(#mask-2)" points="149.716699 10.1178947 150.433861 10.1178947 150.433861 3.38551579 149.716699 3.38551579"></polygon>
                    <path d="M151.884421,10.1178947 L152.601583,10.1178947 L152.601583,5.57052632 L151.884421,5.57052632 L151.884421,10.1178947 Z M152.724189,3.94086316 C152.724189,4.07671579 152.677722,4.19096842 152.584228,4.28248421 C152.490734,4.37172632 152.379884,4.41606316 152.25168,4.41606316 C152.120676,4.41606316 152.009826,4.37286316 151.919131,4.28703158 C151.828996,4.19835789 151.783649,4.08296842 151.783649,3.94086316 C151.783649,3.81353684 151.827317,3.70383158 151.915212,3.61231579 C152.005347,3.51738947 152.117876,3.47021053 152.25168,3.47021053 C152.386042,3.47021053 152.498012,3.51625263 152.588707,3.60776842 C152.678842,3.69928421 152.724189,3.81069474 152.724189,3.94086316 L152.724189,3.94086316 Z" id="Fill-46" fill="#856A1A" mask="url(#mask-2)"></path>
                    <path d="M157.06999,9.90917053 C156.722886,10.1223284 156.313079,10.2286232 155.841129,10.2286232 C155.433002,10.2286232 155.065183,10.1342653 154.738793,9.94441263 C154.415203,9.75228632 154.162712,9.48114947 153.981882,9.13213895 C153.801052,8.78256 153.710917,8.39034947 153.710917,7.95493895 C153.710917,7.20348632 153.922539,6.59925474 154.345222,6.14338105 C154.770705,5.68750737 155.336708,5.45957053 156.042114,5.45957053 C156.432886,5.45957053 156.778311,5.53630737 157.078948,5.69034947 L157.078948,6.43668632 C156.7436,6.19965474 156.387539,6.08142316 156.011322,6.08142316 C155.54777,6.08142316 155.170434,6.25024421 154.878755,6.58731789 C154.589875,6.92211789 154.445994,7.35582316 154.445994,7.88843368 C154.445994,8.41877053 154.582597,8.83769684 154.856921,9.14521263 C155.134044,9.45329684 155.504102,9.60733895 155.967654,9.60733895 C156.358427,9.60733895 156.725685,9.47717053 157.06999,9.21626526 L157.06999,9.90917053" id="Fill-47" fill="#856A1A" mask="url(#mask-2)"></path>
                    <path d="M160.608326,7.81755158 L159.523905,7.97273053 C159.153288,8.02616211 158.893519,8.11654105 158.74516,8.24386737 C158.596241,8.36835158 158.521782,8.57127789 158.521782,8.85207789 C158.521782,9.08001474 158.6024,9.26361474 158.762515,9.40287789 C158.923191,9.53929895 159.128654,9.60694105 159.379465,9.60694105 C159.734967,9.60694105 160.028326,9.48018316 160.258423,9.22553053 C160.491878,8.97087789 160.608326,8.65256211 160.608326,8.27058316 L160.608326,7.81755158 M161.325488,10.1179516 L160.608326,10.1179516 L160.608326,9.40742526 L160.590971,9.40742526 C160.278577,9.95481474 159.819504,10.2287937 159.213191,10.2287937 C158.78155,10.2287937 158.436125,10.1105621 158.176357,9.87353053 C157.917149,9.63365684 157.787264,9.31249895 157.787264,8.91005684 C157.787264,8.06310947 158.279929,7.56915158 159.265817,7.42647789 L160.608326,7.23605684 C160.608326,6.46584632 160.300971,6.08102526 159.685701,6.08102526 C159.14601,6.08102526 158.658944,6.26633053 158.224504,6.63637263 L158.224504,5.89003579 C158.356068,5.78942526 158.580566,5.69336211 158.897998,5.60184632 C159.21599,5.50692 159.498712,5.45974105 159.746724,5.45974105 C160.799234,5.45974105 161.325488,6.02645684 161.325488,7.16045684 L161.325488,10.1179516" id="Fill-48" fill="#856A1A" mask="url(#mask-2)"></path>
                    <path d="M164.746817,10.0735011 C164.574944,10.1712695 164.350446,10.2201537 164.073322,10.2201537 C163.291778,10.2201537 162.901006,9.77280632 162.901006,8.87868 L162.901006,6.18777474 L162.131218,6.18777474 L162.131218,5.57046947 L162.901006,5.57046947 L162.901006,4.46034316 L163.618168,4.22501684 L163.618168,5.57046947 L164.746817,5.57046947 L164.746817,6.18777474 L163.618168,6.18777474 L163.618168,8.75476421 C163.618168,9.05943789 163.669674,9.27714316 163.771566,9.40731158 C163.873458,9.53463789 164.04421,9.59830105 164.283264,9.59830105 C164.461295,9.59830105 164.615813,9.54941684 164.746817,9.45164842 L164.746817,10.0735011 Z" id="Fill-49" fill="#856A1A" mask="url(#mask-2)"></path>
                    <path d="M165.696931,10.1178947 L166.414093,10.1178947 L166.414093,5.57052632 L165.696931,5.57052632 L165.696931,10.1178947 Z M166.536699,3.94086316 C166.536699,4.07671579 166.490232,4.19096842 166.396737,4.28248421 C166.303243,4.37172632 166.192394,4.41606316 166.064189,4.41606316 C165.933185,4.41606316 165.822336,4.37286316 165.731641,4.28703158 C165.641506,4.19835789 165.596158,4.08296842 165.596158,3.94086316 C165.596158,3.81353684 165.639826,3.70383158 165.727722,3.61231579 C165.817857,3.51738947 165.930386,3.47021053 166.064189,3.47021053 C166.198552,3.47021053 166.310521,3.51625263 166.401216,3.60776842 C166.491351,3.69928421 166.536699,3.81069474 166.536699,3.94086316 L166.536699,3.94086316 Z" id="Fill-50" fill="#856A1A" mask="url(#mask-2)"></path>
                    <path d="M171.197413,7.85307789 C171.197413,7.28181474 171.072008,6.84356211 170.821197,6.53832 C170.573185,6.23364632 170.217683,6.08130947 169.754131,6.08130947 C169.293378,6.08130947 168.928919,6.23819368 168.660753,6.55196211 C168.392587,6.86288842 168.258224,7.30227789 168.258224,7.87069895 C168.258224,8.41581474 168.392587,8.84213053 168.660753,9.14964632 C168.931718,9.45488842 169.296178,9.60722526 169.754131,9.60722526 C170.220483,9.60722526 170.577664,9.45602526 170.825676,9.15419368 C171.073687,8.85236211 171.197413,8.41865684 171.197413,7.85307789 M171.931931,7.82636211 C171.931931,8.54882526 171.729826,9.13032 171.324498,9.57141474 C170.921969,10.0096674 170.381158,10.2290779 169.701506,10.2290779 C169.039768,10.2290779 168.510714,10.01592 168.113784,9.58960421 C167.720212,9.15987789 167.523707,8.59600421 167.523707,7.89741474 C167.523707,7.14539368 167.725811,6.55196211 168.131139,6.11655158 C168.536467,5.67886737 169.095193,5.45945684 169.806757,5.45945684 C170.471293,5.45945684 170.99195,5.67090947 171.368166,6.09438316 C171.744382,6.51501474 171.931931,7.09196211 171.931931,7.82636211" id="Fill-51" fill="#856A1A" mask="url(#mask-2)"></path>
                    <path d="M176.759759,10.1178947 L176.042597,10.1178947 L176.042597,7.52475789 C176.042597,6.56242105 175.695492,6.08096842 175.001284,6.08096842 C174.648581,6.08096842 174.352983,6.21738947 174.113369,6.48966316 C173.877674,6.75909474 173.759546,7.10412632 173.759546,7.52418947 L173.759546,10.1178947 L173.041824,10.1178947 L173.041824,5.57052632 L173.759546,5.57052632 L173.759546,6.32538947 L173.776902,6.32538947 C174.112249,5.74787368 174.602114,5.45968421 175.246496,5.45968421 C175.73916,5.45968421 176.113697,5.62225263 176.370666,5.94795789 C176.629875,6.27366316 176.759759,6.73522105 176.759759,7.33376842 L176.759759,10.1178947" id="Fill-52" fill="#856A1A" mask="url(#mask-2)"></path>
                    <path d="M184.550625,6.87169895 C184.550625,5.24033053 183.697981,4.42464632 181.992131,4.42464632 L181.012402,4.42464632 L181.012402,9.44266737 L181.943985,9.44266737 C182.771996,9.44266737 183.413579,9.21927789 183.868174,8.77249895 C184.323328,8.32230947 184.550625,7.68852 184.550625,6.87169895 M185.320413,6.85407789 C185.320413,7.50207789 185.180452,8.07504632 184.900529,8.57241474 C184.620606,9.06694105 184.222556,9.44892 183.706378,9.71835158 C183.190201,9.98494105 182.600124,10.1179516 181.935027,10.1179516 L180.277324,10.1179516 L180.277324,3.74993053 L182.009486,3.74993053 C184.216958,3.74993053 185.320413,4.78445684 185.320413,6.85407789" id="Fill-53" fill="#856A1A" mask="url(#mask-2)"></path>
                    <path d="M189.290278,7.40902737 C189.28468,6.98839579 189.183907,6.66325895 188.988521,6.43191158 C188.795934,6.19829053 188.52329,6.08119579 188.170587,6.08119579 C187.838039,6.08119579 187.553637,6.20283789 187.317942,6.44555368 C187.081687,6.68826947 186.932768,7.00942737 186.871745,7.40902737 L189.290278,7.40902737 L189.290278,7.40902737 Z M190.024795,8.02633263 L186.862788,8.02633263 C186.874544,8.53848 187.007228,8.93069053 187.260838,9.20296421 C187.517247,9.47239579 187.871629,9.60711158 188.323425,9.60711158 C188.831205,9.60711158 189.293077,9.44170105 189.710162,9.10974316 L189.710162,9.78900632 C189.31939,10.0823116 188.800413,10.2289642 188.153232,10.2289642 C187.514448,10.2289642 187.016185,10.0203537 186.657324,9.60256421 C186.298463,9.18250105 186.119313,8.60214316 186.119313,7.86205895 C186.119313,7.41186947 186.208328,7.00203789 186.386359,6.63199579 C186.566629,6.25911158 186.814641,5.97035368 187.129834,5.76572211 C187.444467,5.56165895 187.794371,5.45934316 188.179544,5.45934316 C188.759544,5.45934316 189.21134,5.65203789 189.534931,6.03685895 C189.86188,6.41883789 190.024795,6.95485895 190.024795,7.64435368 L190.024795,8.02633263 Z" id="Fill-54" fill="#856A1A" mask="url(#mask-2)"></path>
                    <path d="M194.594479,5.57052632 L192.809691,10.1178947 L192.101486,10.1178947 L190.408514,5.57052632 L191.200695,5.57052632 L192.337741,8.87021053 C192.398764,9.04471579 192.448591,9.25787368 192.4861,9.50968421 L192.507934,9.50968421 C192.534247,9.29027368 192.581274,9.08450526 192.647896,8.89237895 L193.842046,5.57052632 L194.594479,5.57052632" id="Fill-55" fill="#856A1A" mask="url(#mask-2)"></path>
                    <path d="M198.194062,7.40902737 C198.188463,6.98839579 198.087691,6.66325895 197.892305,6.43191158 C197.699718,6.19829053 197.427073,6.08119579 197.074371,6.08119579 C196.741822,6.08119579 196.457421,6.20283789 196.221726,6.44555368 C195.985471,6.68826947 195.836552,7.00942737 195.775529,7.40902737 L198.194062,7.40902737 L198.194062,7.40902737 Z M198.928579,8.02633263 L195.766571,8.02633263 C195.778328,8.53848 195.911012,8.93069053 196.164622,9.20296421 C196.421031,9.47239579 196.775413,9.60711158 197.227208,9.60711158 C197.734988,9.60711158 198.196861,9.44170105 198.613946,9.10974316 L198.613946,9.78900632 C198.223174,10.0823116 197.704197,10.2289642 197.057015,10.2289642 C196.418232,10.2289642 195.919969,10.0203537 195.561108,9.60256421 C195.202247,9.18250105 195.023097,8.60214316 195.023097,7.86205895 C195.023097,7.41186947 195.112112,7.00203789 195.290143,6.63199579 C195.470413,6.25911158 195.718425,5.97035368 196.033618,5.76572211 C196.348251,5.56165895 196.698154,5.45934316 197.083328,5.45934316 C197.663328,5.45934316 198.115124,5.65203789 198.438714,6.03685895 C198.765664,6.41883789 198.928579,6.95485895 198.928579,7.64435368 L198.928579,8.02633263 Z" id="Fill-56" fill="#856A1A" mask="url(#mask-2)"></path>
                    <polygon id="Fill-57" fill="#856A1A" mask="url(#mask-2)" points="199.977394 10.1178947 200.694556 10.1178947 200.694556 3.38551579 199.977394 3.38551579"></polygon>
                    <path d="M205.477876,7.85307789 C205.477876,7.28181474 205.352471,6.84356211 205.10166,6.53832 C204.853649,6.23364632 204.498147,6.08130947 204.034595,6.08130947 C203.573842,6.08130947 203.209382,6.23819368 202.941216,6.55196211 C202.67305,6.86288842 202.538687,7.30227789 202.538687,7.87069895 C202.538687,8.41581474 202.67305,8.84213053 202.941216,9.14964632 C203.212181,9.45488842 203.576641,9.60722526 204.034595,9.60722526 C204.500946,9.60722526 204.858127,9.45602526 205.106139,9.15419368 C205.354151,8.85236211 205.477876,8.41865684 205.477876,7.85307789 M206.212954,7.82636211 C206.212954,8.54882526 206.01029,9.13032 205.604961,9.57141474 C205.202432,10.0096674 204.661622,10.2290779 203.981969,10.2290779 C203.320232,10.2290779 202.791178,10.01592 202.394247,9.58960421 C202.000676,9.15987789 201.80417,8.59600421 201.80417,7.89741474 C201.80417,7.14539368 202.006274,6.55196211 202.411602,6.11655158 C202.816931,5.67886737 203.375656,5.45945684 204.08722,5.45945684 C204.751757,5.45945684 205.272413,5.67090947 205.648629,6.09438316 C206.024846,6.51501474 206.212954,7.09196211 206.212954,7.82636211" id="Fill-58" fill="#856A1A" mask="url(#mask-2)"></path>
                    <path d="M210.707842,7.69767158 C210.707842,7.20598737 210.594193,6.81377684 210.366896,6.52104 C210.139039,6.22773474 209.825525,6.08108211 209.426355,6.08108211 C209.015429,6.08108211 208.681201,6.22602947 208.424792,6.51649263 C208.168382,6.80638737 208.039618,7.17642947 208.039618,7.62661895 L208.039618,8.26154526 C208.039618,8.64352421 208.162224,8.96354526 208.407436,9.22104 C208.654888,9.47853474 208.960004,9.60699789 209.321104,9.60699789 C209.752745,9.60699789 210.090892,9.43874526 210.336104,9.10110316 C210.584116,8.76346105 210.707842,8.29565053 210.707842,7.69767158 M211.442359,7.70676632 C211.442359,8.47640842 211.25761,9.08916632 210.886992,9.54504 C210.516934,10.0009137 210.020911,10.2288505 209.400042,10.2288505 C208.811085,10.2288505 208.363768,9.97419789 208.057533,9.46489263 L208.039618,9.46489263 L208.039618,12.2092295 L207.322456,12.2092295 L207.322456,5.57064 L208.039618,5.57064 L208.039618,6.36984 L208.057533,6.36984 C208.410236,5.76276632 208.926413,5.45922947 209.605506,5.45922947 C210.165351,5.45922947 210.611548,5.66101895 210.944097,6.06346105 C211.276645,6.46590316 211.442359,7.01386105 211.442359,7.70676632" id="Fill-59" fill="#856A1A" mask="url(#mask-2)"></path>
                    <path d="M218.904205,10.1178947 L218.187042,10.1178947 L218.187042,7.50656842 C218.187042,6.99726316 218.109784,6.63347368 217.955266,6.41406316 C217.803548,6.19237895 217.547139,6.08096842 217.185479,6.08096842 C216.879243,6.08096842 216.618355,6.22307368 216.402255,6.50728421 C216.189514,6.79149474 216.083143,7.13084211 216.083143,7.52475789 L216.083143,10.1178947 L215.365981,10.1178947 L215.365981,7.41789474 C215.365981,6.52661053 215.026154,6.08096842 214.346502,6.08096842 C214.031869,6.08096842 213.7721,6.21568421 213.568317,6.48511579 C213.363973,6.75170526 213.262081,7.09844211 213.262081,7.52475789 L213.262081,10.1178947 L212.544919,10.1178947 L212.544919,5.57052632 L213.262081,5.57052632 L213.262081,6.29014737 L213.279436,6.29014737 C213.597429,5.73650526 214.059301,5.45968421 214.666174,5.45968421 C214.957853,5.45968421 215.219861,5.54210526 215.453317,5.70808421 C215.686772,5.87406316 215.848568,6.10654737 215.938703,6.40553684 C216.271251,5.77458947 216.766714,5.45968421 217.425653,5.45968421 C218.411541,5.45968421 218.904205,6.07812632 218.904205,7.31557895 L218.904205,10.1178947 Z" id="Fill-60" fill="#856A1A" mask="url(#mask-2)"></path>
                    <path d="M223.078077,7.40902737 C223.072479,6.98839579 222.971707,6.66325895 222.77632,6.43191158 C222.583734,6.19829053 222.311089,6.08119579 221.958386,6.08119579 C221.625838,6.08119579 221.341436,6.20283789 221.105741,6.44555368 C220.869486,6.68826947 220.720568,7.00942737 220.659544,7.40902737 L223.078077,7.40902737 L223.078077,7.40902737 Z M223.812595,8.02633263 L220.650587,8.02633263 C220.662344,8.53848 220.795027,8.93069053 221.048637,9.20296421 C221.305046,9.47239579 221.659429,9.60711158 222.111224,9.60711158 C222.619004,9.60711158 223.080876,9.44170105 223.497961,9.10974316 L223.497961,9.78900632 C223.107189,10.0823116 222.588212,10.2289642 221.941031,10.2289642 C221.302247,10.2289642 220.803985,10.0203537 220.445124,9.60256421 C220.086263,9.18250105 219.907112,8.60214316 219.907112,7.86205895 C219.907112,7.41186947 219.996127,7.00203789 220.174158,6.63199579 C220.354429,6.25911158 220.60244,5.97035368 220.917633,5.76572211 C221.232266,5.56165895 221.58217,5.45934316 221.967344,5.45934316 C222.547344,5.45934316 222.999139,5.65203789 223.32273,6.03685895 C223.64968,6.41883789 223.812595,6.95485895 223.812595,7.64435368 L223.812595,8.02633263 Z" id="Fill-61" fill="#856A1A" mask="url(#mask-2)"></path>
                    <path d="M228.579064,10.1178947 L227.861902,10.1178947 L227.861902,7.52475789 C227.861902,6.56242105 227.514797,6.08096842 226.820589,6.08096842 C226.467886,6.08096842 226.172288,6.21738947 225.932674,6.48966316 C225.696979,6.75909474 225.578851,7.10412632 225.578851,7.52418947 L225.578851,10.1178947 L224.861129,10.1178947 L224.861129,5.57052632 L225.578851,5.57052632 L225.578851,6.32538947 L225.596207,6.32538947 C225.931554,5.74787368 226.421419,5.45968421 227.065801,5.45968421 C227.558465,5.45968421 227.933002,5.62225263 228.189971,5.94795789 C228.44918,6.27366316 228.579064,6.73522105 228.579064,7.33376842 L228.579064,10.1178947" id="Fill-62" fill="#856A1A" mask="url(#mask-2)"></path>
                    <path d="M231.999888,10.0735011 C231.828015,10.1712695 231.603517,10.2201537 231.326394,10.2201537 C230.544849,10.2201537 230.154077,9.77280632 230.154077,8.87868 L230.154077,6.18777474 L229.38429,6.18777474 L229.38429,5.57046947 L230.154077,5.57046947 L230.154077,4.46034316 L230.871239,4.22501684 L230.871239,5.57046947 L231.999888,5.57046947 L231.999888,6.18777474 L230.871239,6.18777474 L230.871239,8.75476421 C230.871239,9.05943789 230.922745,9.27714316 231.024637,9.40731158 C231.126529,9.53463789 231.297282,9.59830105 231.536336,9.59830105 C231.714367,9.59830105 231.868884,9.54941684 231.999888,9.45164842 L231.999888,10.0735011" id="Fill-63" fill="#856A1A" mask="url(#mask-2)"></path>
                    <path d="M117.480064,22.7563958 C116.850237,23.1207537 116.150431,23.3026484 115.380643,23.3026484 C114.794485,23.3026484 114.271029,23.1679326 113.810276,22.8985011 C113.352882,22.6290695 112.99962,22.2487958 112.752168,21.7571116 C112.504156,21.2659958 112.380431,20.7106484 112.380431,20.0922063 C112.380431,19.1150905 112.684986,18.3079326 113.294098,17.6718695 C113.90377,17.0352379 114.683635,16.7169221 115.634253,16.7169221 C116.316705,16.7169221 116.889427,16.8294695 117.352979,17.0545642 L117.352979,17.88048 C116.845759,17.5519326 116.245044,17.3876589 115.551396,17.3876589 C115.093442,17.3876589 114.680836,17.5002063 114.313577,17.7247326 C113.949118,17.9469853 113.663037,18.2624589 113.455894,18.6711537 C113.25211,19.07928 113.150218,19.5340168 113.150218,20.0342274 C113.150218,20.8362695 113.356801,21.4700589 113.771087,21.9350274 C114.188172,22.3965853 114.755295,22.6273642 115.472458,22.6273642 C115.959523,22.6273642 116.383886,22.5267537 116.744986,22.3255326 L116.744986,20.5446695 L115.371685,20.5446695 L115.371685,19.8699537 L117.480064,19.8699537 L117.480064,22.7563958" id="Fill-64" fill="#856A1A" mask="url(#mask-2)"></path>
                    <path d="M122.172857,20.9267621 C122.172857,20.3554989 122.047452,19.9172463 121.796641,19.6125726 C121.548629,19.3073305 121.193127,19.1549937 120.729575,19.1549937 C120.268822,19.1549937 119.904363,19.3118779 119.636197,19.6256463 C119.368031,19.9365726 119.233668,20.3759621 119.233668,20.9443832 C119.233668,21.4894989 119.368031,21.9158147 119.636197,22.2233305 C119.907162,22.5285726 120.271622,22.6809095 120.729575,22.6809095 C121.195927,22.6809095 121.553108,22.5297095 121.80112,22.2278779 C122.049131,21.9260463 122.172857,21.4923411 122.172857,20.9267621 M122.907375,20.9000463 C122.907375,21.6225095 122.70527,22.2040042 122.299942,22.6450989 C121.897413,23.0833516 121.356602,23.3027621 120.67695,23.3027621 C120.015212,23.3027621 119.486158,23.0896042 119.089228,22.6632884 C118.695656,22.2341305 118.499151,21.6696884 118.499151,20.9710989 C118.499151,20.2190779 118.701255,19.6256463 119.106583,19.1902358 C119.511911,18.7525516 120.070637,18.5331411 120.782201,18.5331411 C121.446737,18.5331411 121.967394,18.7445937 122.34361,19.1680674 C122.719826,19.5886989 122.907375,20.1656463 122.907375,20.9000463" id="Fill-65" fill="#856A1A" mask="url(#mask-2)"></path>
                    <polygon id="Fill-66" fill="#856A1A" mask="url(#mask-2)" points="124.017548 23.1915789 124.73471 23.1915789 124.73471 16.4592 124.017548 16.4592"></polygon>
                    <path d="M129.255575,21.1354863 L129.255575,20.4647495 C129.255575,20.0890232 129.131849,19.7763916 128.883838,19.5279916 C128.638625,19.2790232 128.340228,19.1551074 127.986965,19.1551074 C127.555884,19.1551074 127.213259,19.3176758 126.959089,19.6433811 C126.705479,19.9662442 126.578954,20.4147284 126.578954,20.9888337 C126.578954,21.5100758 126.698201,21.9227495 126.937255,22.2279916 C127.176309,22.5298232 127.49878,22.6810232 127.904108,22.6810232 C128.29768,22.6810232 128.62127,22.5360758 128.87488,22.2456126 C129.12849,21.9557179 129.255575,21.5856758 129.255575,21.1354863 L129.255575,21.1354863 Z M129.972737,23.1914653 L129.255575,23.1914653 L129.255575,22.4189811 L129.23822,22.4189811 C128.905672,23.0078653 128.392293,23.3028758 127.698645,23.3028758 C127.132641,23.3028758 126.682525,23.0971074 126.347178,22.6855705 C126.01183,22.2706232 125.843876,21.7186863 125.843876,21.0291916 C125.843876,20.2771705 126.029185,19.6729389 126.399243,19.2170653 C126.77266,18.7611916 127.271483,18.5332547 127.895151,18.5332547 C128.507622,18.5332547 128.955498,18.7788126 129.23822,19.2704968 L129.255575,19.2704968 L129.255575,16.4590863 L129.972737,16.4590863 L129.972737,23.1914653 Z" id="Fill-67" fill="#856A1A" mask="url(#mask-2)"></path>
                    <path d="M136.72677,20.7358295 L135.742562,18.0267347 C135.719608,17.9619347 135.686017,17.8181242 135.642349,17.59644 L135.624434,17.59644 C135.598122,17.7828821 135.56621,17.9261242 135.528141,18.0267347 L134.55289,20.7358295 L136.72677,20.7358295 M138.445496,23.1914084 L137.632041,23.1914084 L136.971423,21.4111137 L134.308237,21.4111137 L133.68289,23.1914084 L132.868875,23.1914084 L135.266133,16.8233874 L136.026963,16.8233874 L138.445496,23.1914084" id="Fill-68" fill="#856A1A" mask="url(#mask-2)"></path>
                    <path d="M142.657494,20.7713558 C142.657494,20.2796716 142.543846,19.8874611 142.316548,19.5947242 C142.088691,19.3014189 141.775178,19.1547663 141.376008,19.1547663 C140.965081,19.1547663 140.630853,19.2997137 140.374444,19.5901768 C140.118035,19.8800716 139.98927,20.2501137 139.98927,20.7003032 L139.98927,21.3352295 C139.98927,21.7172084 140.111876,22.0372295 140.357089,22.2947242 C140.604541,22.5522189 140.909656,22.6806821 141.270757,22.6806821 C141.702398,22.6806821 142.040544,22.5118611 142.285757,22.1747874 C142.533768,21.8371453 142.657494,21.3693347 142.657494,20.7713558 M143.392012,20.7804505 C143.392012,21.5500926 143.207263,22.1628505 142.836645,22.6187242 C142.466587,23.0745979 141.970564,23.3025347 141.349695,23.3025347 C140.760737,23.3025347 140.313421,23.0478821 140.007185,22.5385768 L139.98927,22.5385768 L139.98927,25.2829137 L139.272108,25.2829137 L139.272108,18.6443242 L139.98927,18.6443242 L139.98927,19.4435242 L140.007185,19.4435242 C140.359888,18.8364505 140.876066,18.5329137 141.555158,18.5329137 C142.115004,18.5329137 142.561201,18.7347032 142.893749,19.1371453 C143.226297,19.5395874 143.392012,20.0875453 143.392012,20.7804505" id="Fill-69" fill="#856A1A" mask="url(#mask-2)"></path>
                    <path d="M147.879734,20.7713558 C147.879734,20.2796716 147.766085,19.8874611 147.538788,19.5947242 C147.310931,19.3014189 146.997417,19.1547663 146.598247,19.1547663 C146.18732,19.1547663 145.853093,19.2997137 145.596683,19.5901768 C145.340274,19.8800716 145.21151,20.2501137 145.21151,20.7003032 L145.21151,21.3352295 C145.21151,21.7172084 145.334116,22.0372295 145.579328,22.2947242 C145.82678,22.5522189 146.131896,22.6806821 146.492996,22.6806821 C146.924637,22.6806821 147.262784,22.5118611 147.507996,22.1747874 C147.756008,21.8371453 147.879734,21.3693347 147.879734,20.7713558 M148.614251,20.7804505 C148.614251,21.5500926 148.429502,22.1628505 148.058884,22.6187242 C147.688826,23.0745979 147.192803,23.3025347 146.571934,23.3025347 C145.982977,23.3025347 145.53566,23.0478821 145.229425,22.5385768 L145.21151,22.5385768 L145.21151,25.2829137 L144.494347,25.2829137 L144.494347,18.6443242 L145.21151,18.6443242 L145.21151,19.4435242 L145.229425,19.4435242 C145.582127,18.8364505 146.098305,18.5329137 146.777398,18.5329137 C147.337243,18.5329137 147.78344,18.7347032 148.115988,19.1371453 C148.448537,19.5395874 148.614251,20.0875453 148.614251,20.7804505" id="Fill-70" fill="#856A1A" mask="url(#mask-2)"></path>
                    <polygon id="Fill-71" fill="#856A1A" mask="url(#mask-2)" points="149.716699 23.1915789 150.433861 23.1915789 150.433861 16.4592 149.716699 16.4592"></polygon>
                    <path d="M151.884421,23.1915789 L152.601583,23.1915789 L152.601583,18.6442105 L151.884421,18.6442105 L151.884421,23.1915789 Z M152.724189,17.0145474 C152.724189,17.1504 152.677722,17.2646526 152.584228,17.3561684 C152.490734,17.4454105 152.379884,17.4897474 152.25168,17.4897474 C152.120676,17.4897474 152.009826,17.4465474 151.919131,17.3607158 C151.828996,17.2720421 151.783649,17.1566526 151.783649,17.0145474 C151.783649,16.8872211 151.827317,16.7775158 151.915212,16.686 C152.005347,16.5910737 152.117876,16.5438947 152.25168,16.5438947 C152.386042,16.5438947 152.498012,16.5893684 152.588707,16.6814526 C152.678842,16.7729684 152.724189,16.8843789 152.724189,17.0145474 L152.724189,17.0145474 Z" id="Fill-72" fill="#856A1A" mask="url(#mask-2)"></path>
                    <path d="M157.06999,22.9828547 C156.722886,23.1960126 156.313079,23.3023074 155.841129,23.3023074 C155.433002,23.3023074 155.065183,23.2079495 154.738793,23.0180968 C154.415203,22.8259705 154.162712,22.5548337 153.981882,22.2058232 C153.801052,21.8562442 153.710917,21.4640337 153.710917,21.0286232 C153.710917,20.2771705 153.922539,19.6729389 154.345222,19.2170653 C154.770705,18.7611916 155.336708,18.5332547 156.042114,18.5332547 C156.432886,18.5332547 156.778311,18.6099916 157.078948,18.7640337 L157.078948,19.5103705 C156.7436,19.2733389 156.387539,19.1551074 156.011322,19.1551074 C155.54777,19.1551074 155.170434,19.32336 154.878755,19.6610021 C154.589875,19.9958021 154.445994,20.4295074 154.445994,20.9621179 C154.445994,21.4924547 154.582597,21.9113811 154.856921,22.2188968 C155.134044,22.5269811 155.504102,22.6810232 155.967654,22.6810232 C156.358427,22.6810232 156.725685,22.5508547 157.06999,22.2899495 L157.06999,22.9828547" id="Fill-73" fill="#856A1A" mask="url(#mask-2)"></path>
                    <path d="M160.608326,20.8912358 L159.523905,21.0464147 C159.153288,21.0998463 158.893519,21.1902253 158.74516,21.3175516 C158.596241,21.4420358 158.521782,21.6443937 158.521782,21.9257621 C158.521782,22.1536989 158.6024,22.3372989 158.762515,22.4765621 C158.923191,22.6129832 159.128654,22.6806253 159.379465,22.6806253 C159.734967,22.6806253 160.028326,22.5538674 160.258423,22.2992147 C160.491878,22.0445621 160.608326,21.7262463 160.608326,21.3442674 L160.608326,20.8912358 M161.325488,23.1916358 L160.608326,23.1916358 L160.608326,22.4811095 L160.590971,22.4811095 C160.278577,23.0284989 159.819504,23.3024779 159.213191,23.3024779 C158.78155,23.3024779 158.436125,23.1842463 158.176357,22.9472147 C157.917149,22.7073411 157.787264,22.3861832 157.787264,21.9837411 C157.787264,21.1367937 158.279929,20.6428358 159.265817,20.5001621 L160.608326,20.3097411 C160.608326,19.5395305 160.300971,19.1547095 159.685701,19.1547095 C159.14601,19.1547095 158.658944,19.3400147 158.224504,19.7100568 L158.224504,18.96372 C158.356068,18.8631095 158.580566,18.7670463 158.897998,18.6755305 C159.21599,18.5806042 159.498712,18.5334253 159.746724,18.5334253 C160.799234,18.5334253 161.325488,19.1001411 161.325488,20.2341411 L161.325488,23.1916358" id="Fill-74" fill="#856A1A" mask="url(#mask-2)"></path>
                    <path d="M164.746817,23.1471853 C164.574944,23.2449537 164.350446,23.2938379 164.073322,23.2938379 C163.291778,23.2938379 162.901006,22.8464905 162.901006,21.9523642 L162.901006,19.2614589 L162.131218,19.2614589 L162.131218,18.6441537 L162.901006,18.6441537 L162.901006,17.5340274 L163.618168,17.2987011 L163.618168,18.6441537 L164.746817,18.6441537 L164.746817,19.2614589 L163.618168,19.2614589 L163.618168,21.8284484 C163.618168,22.1331221 163.669674,22.3508274 163.771566,22.4809958 C163.873458,22.6083221 164.04421,22.6719853 164.283264,22.6719853 C164.461295,22.6719853 164.615813,22.6231011 164.746817,22.5253326 L164.746817,23.1471853 Z" id="Fill-75" fill="#856A1A" mask="url(#mask-2)"></path>
                    <path d="M165.696931,23.1915789 L166.414093,23.1915789 L166.414093,18.6442105 L165.696931,18.6442105 L165.696931,23.1915789 Z M166.536699,17.0145474 C166.536699,17.1504 166.490232,17.2646526 166.396737,17.3561684 C166.303243,17.4454105 166.192394,17.4897474 166.064189,17.4897474 C165.933185,17.4897474 165.822336,17.4465474 165.731641,17.3607158 C165.641506,17.2720421 165.596158,17.1566526 165.596158,17.0145474 C165.596158,16.8872211 165.639826,16.7775158 165.727722,16.686 C165.817857,16.5910737 165.930386,16.5438947 166.064189,16.5438947 C166.198552,16.5438947 166.310521,16.5893684 166.401216,16.6814526 C166.491351,16.7729684 166.536699,16.8843789 166.536699,17.0145474 L166.536699,17.0145474 Z" id="Fill-76" fill="#856A1A" mask="url(#mask-2)"></path>
                    <path d="M171.197413,20.9267621 C171.197413,20.3554989 171.072008,19.9172463 170.821197,19.6125726 C170.573185,19.3073305 170.217683,19.1549937 169.754131,19.1549937 C169.293378,19.1549937 168.928919,19.3118779 168.660753,19.6256463 C168.392587,19.9365726 168.258224,20.3759621 168.258224,20.9443832 C168.258224,21.4894989 168.392587,21.9158147 168.660753,22.2233305 C168.931718,22.5285726 169.296178,22.6809095 169.754131,22.6809095 C170.220483,22.6809095 170.577664,22.5297095 170.825676,22.2278779 C171.073687,21.9260463 171.197413,21.4923411 171.197413,20.9267621 M171.931931,20.9000463 C171.931931,21.6225095 171.729826,22.2040042 171.324498,22.6450989 C170.921969,23.0833516 170.381158,23.3027621 169.701506,23.3027621 C169.039768,23.3027621 168.510714,23.0896042 168.113784,22.6632884 C167.720212,22.2341305 167.523707,21.6696884 167.523707,20.9710989 C167.523707,20.2190779 167.725811,19.6256463 168.131139,19.1902358 C168.536467,18.7525516 169.095193,18.5331411 169.806757,18.5331411 C170.471293,18.5331411 170.99195,18.7445937 171.368166,19.1680674 C171.744382,19.5886989 171.931931,20.1656463 171.931931,20.9000463" id="Fill-77" fill="#856A1A" mask="url(#mask-2)"></path>
                    <path d="M176.759759,23.1915789 L176.042597,23.1915789 L176.042597,20.5984421 C176.042597,19.6361053 175.695492,19.1546526 175.001284,19.1546526 C174.648581,19.1546526 174.352983,19.2910737 174.113369,19.5633474 C173.877674,19.8327789 173.759546,20.1778105 173.759546,20.5984421 L173.759546,23.1915789 L173.041824,23.1915789 L173.041824,18.6442105 L173.759546,18.6442105 L173.759546,19.3990737 L173.776902,19.3990737 C174.112249,18.8215579 174.602114,18.5333684 175.246496,18.5333684 C175.73916,18.5333684 176.113697,18.6959368 176.370666,19.0216421 C176.629875,19.3473474 176.759759,19.8089053 176.759759,20.4074526 L176.759759,23.1915789" id="Fill-78" fill="#856A1A" mask="url(#mask-2)"></path>
                    <polygon id="Fill-79" fill="#856A1A" mask="url(#mask-2)" points="180.277548 23.1915789 181.012066 23.1915789 181.012066 16.8235579 180.277548 16.8235579"></polygon>
                    <path d="M186.281612,23.1915789 L185.56445,23.1915789 L185.56445,20.5984421 C185.56445,19.6361053 185.217346,19.1546526 184.523137,19.1546526 C184.170434,19.1546526 183.874836,19.2910737 183.635222,19.5633474 C183.399527,19.8327789 183.2814,20.1778105 183.2814,20.5984421 L183.2814,23.1915789 L182.563678,23.1915789 L182.563678,18.6442105 L183.2814,18.6442105 L183.2814,19.3990737 L183.298755,19.3990737 C183.634102,18.8215579 184.123967,18.5333684 184.768349,18.5333684 C185.261014,18.5333684 185.63555,18.6959368 185.892519,19.0216421 C186.151728,19.3473474 186.281612,19.8089053 186.281612,20.4074526 L186.281612,23.1915789" id="Fill-80" fill="#856A1A" mask="url(#mask-2)"></path>
                    <path d="M189.702492,23.1471853 C189.53062,23.2449537 189.306122,23.2938379 189.028998,23.2938379 C188.247454,23.2938379 187.856681,22.8464905 187.856681,21.9523642 L187.856681,19.2614589 L187.086894,19.2614589 L187.086894,18.6441537 L187.856681,18.6441537 L187.856681,17.5340274 L188.573844,17.2987011 L188.573844,18.6441537 L189.702492,18.6441537 L189.702492,19.2614589 L188.573844,19.2614589 L188.573844,21.8284484 C188.573844,22.1331221 188.625349,22.3508274 188.727241,22.4809958 C188.829133,22.6083221 188.999886,22.6719853 189.23894,22.6719853 C189.416971,22.6719853 189.571488,22.6231011 189.702492,22.5253326 L189.702492,23.1471853 Z" id="Fill-81" fill="#856A1A" mask="url(#mask-2)"></path>
                    <path d="M193.482402,20.4827116 C193.476803,20.06208 193.376031,19.7369432 193.180645,19.5055958 C192.988058,19.2719747 192.715413,19.15488 192.36271,19.15488 C192.030162,19.15488 191.745761,19.2765221 191.510066,19.5192379 C191.273811,19.7619537 191.124892,20.0831116 191.063869,20.4827116 L193.482402,20.4827116 L193.482402,20.4827116 Z M194.216919,21.1000168 L191.054911,21.1000168 C191.066668,21.6121642 191.199351,22.0043747 191.452961,22.2766484 C191.709371,22.54608 192.063753,22.6807958 192.515548,22.6807958 C193.023328,22.6807958 193.485201,22.5153853 193.902286,22.1834274 L193.902286,22.8632589 C193.511514,23.1559958 192.992537,23.3026484 192.345355,23.3026484 C191.706571,23.3026484 191.208309,23.0940379 190.849448,22.6762484 C190.490587,22.2561853 190.311436,21.6758274 190.311436,20.9357432 C190.311436,20.4855537 190.400452,20.0757221 190.578483,19.70568 C190.758753,19.3327958 191.006764,19.0440379 191.321958,18.8394063 C191.636591,18.6353432 191.986494,18.5330274 192.371668,18.5330274 C192.951668,18.5330274 193.403463,18.7257221 193.727054,19.1105432 C194.054004,19.4925221 194.216919,20.0285432 194.216919,20.7180379 L194.216919,21.1000168 Z" id="Fill-82" fill="#856A1A" mask="url(#mask-2)"></path>
                    <path d="M198.336095,21.1354863 L198.336095,20.4647495 C198.336095,20.0975495 198.212369,19.7883284 197.964357,19.5365179 C197.716346,19.2824337 197.420747,19.1551074 197.076442,19.1551074 C196.630245,19.1551074 196.282021,19.3193811 196.03121,19.6479284 C195.783199,19.9764758 195.659473,20.4340547 195.659473,21.0200968 C195.659473,21.5174653 195.77872,21.9187705 196.017774,22.2234442 C196.256828,22.5286863 196.5765,22.6810232 196.97567,22.6810232 C197.3754,22.6810232 197.70179,22.5372126 197.9554,22.25016 C198.20901,21.9602653 198.336095,21.5885179 198.336095,21.1354863 M199.053257,22.8276758 C199.053257,24.4942863 198.266114,25.3275916 196.691268,25.3275916 C196.14318,25.3275916 195.659473,25.2224337 195.239589,25.0121179 L195.239589,24.2839705 C195.74121,24.5681811 196.220438,24.7102863 196.678392,24.7102863 C197.783527,24.7102863 198.336095,24.1168547 198.336095,22.9294232 L198.336095,22.4275074 L198.318739,22.4275074 C197.977234,23.0112758 197.464415,23.3028758 196.779164,23.3028758 C196.417504,23.3028758 196.095033,23.2107916 195.812311,23.0271916 C195.529589,22.8435916 195.310689,22.5815495 195.156172,22.2410653 C195.001654,21.9005811 194.924396,21.5083705 194.924396,21.0644337 C194.924396,20.2885389 195.109705,19.6729389 195.479763,19.2170653 C195.85318,18.7611916 196.352002,18.5332547 196.97567,18.5332547 C197.579183,18.5332547 198.02706,18.7788126 198.318739,19.2704968 L198.336095,19.2704968 L198.336095,18.6440968 L199.053257,18.6440968 L199.053257,22.8276758" id="Fill-83" fill="#856A1A" mask="url(#mask-2)"></path>
                    <path d="M202.832494,19.3813958 C202.70429,19.2836274 202.52178,19.2347432 202.285525,19.2347432 C201.968093,19.2347432 201.710004,19.38708 201.511819,19.6923221 C201.313073,19.9941537 201.213981,20.3880695 201.213981,20.8735011 L201.213981,23.1915221 L200.496819,23.1915221 L200.496819,18.6441537 L201.213981,18.6441537 L201.213981,19.58148 L201.231896,19.58148 C201.330988,19.2677116 201.483826,19.0204484 201.690969,18.8396905 C201.898112,18.6560905 202.135486,18.5645747 202.403653,18.5645747 C202.590641,18.5645747 202.733402,18.5850379 202.832494,18.6265326 L202.832494,19.3813958 Z" id="Fill-84" fill="#856A1A" mask="url(#mask-2)"></path>
                    <path d="M206.067786,20.8912358 L204.983365,21.0464147 C204.612747,21.0998463 204.352979,21.1902253 204.20462,21.3175516 C204.055701,21.4420358 203.981241,21.6443937 203.981241,21.9257621 C203.981241,22.1536989 204.061859,22.3372989 204.221975,22.4765621 C204.382651,22.6129832 204.588114,22.6806253 204.838925,22.6806253 C205.194427,22.6806253 205.487786,22.5538674 205.717882,22.2992147 C205.951338,22.0445621 206.067786,21.7262463 206.067786,21.3442674 L206.067786,20.8912358 M206.784948,23.1916358 L206.067786,23.1916358 L206.067786,22.4811095 L206.050431,22.4811095 C205.738037,23.0284989 205.278963,23.3024779 204.672651,23.3024779 C204.24101,23.3024779 203.895585,23.1842463 203.635817,22.9472147 C203.376608,22.7073411 203.246724,22.3861832 203.246724,21.9837411 C203.246724,21.1367937 203.739388,20.6428358 204.725276,20.5001621 L206.067786,20.3097411 C206.067786,19.5395305 205.760431,19.1547095 205.14516,19.1547095 C204.605469,19.1547095 204.118403,19.3400147 203.683963,19.7100568 L203.683963,18.96372 C203.815527,18.8631095 204.040025,18.7670463 204.357458,18.6755305 C204.67545,18.5806042 204.958172,18.5334253 205.206183,18.5334253 C206.258693,18.5334253 206.784948,19.1001411 206.784948,20.2341411 L206.784948,23.1916358" id="Fill-85" fill="#856A1A" mask="url(#mask-2)"></path>
                    <path d="M210.20622,23.1471853 C210.034347,23.2449537 209.809849,23.2938379 209.532726,23.2938379 C208.751181,23.2938379 208.360409,22.8464905 208.360409,21.9523642 L208.360409,19.2614589 L207.590622,19.2614589 L207.590622,18.6441537 L208.360409,18.6441537 L208.360409,17.5340274 L209.077571,17.2987011 L209.077571,18.6441537 L210.20622,18.6441537 L210.20622,19.2614589 L209.077571,19.2614589 L209.077571,21.8284484 C209.077571,22.1331221 209.129077,22.3508274 209.230969,22.4809958 C209.332861,22.6083221 209.503614,22.6719853 209.742668,22.6719853 C209.920699,22.6719853 210.075216,22.6231011 210.20622,22.5253326 L210.20622,23.1471853 Z" id="Fill-86" fill="#856A1A" mask="url(#mask-2)"></path>
                    <path d="M211.15639,23.1915789 L211.873552,23.1915789 L211.873552,18.6442105 L211.15639,18.6442105 L211.15639,23.1915789 Z M211.996158,17.0145474 C211.996158,17.1504 211.949691,17.2646526 211.856197,17.3561684 C211.762703,17.4454105 211.651853,17.4897474 211.523649,17.4897474 C211.392645,17.4897474 211.281795,17.4465474 211.1911,17.3607158 C211.100965,17.2720421 211.055618,17.1566526 211.055618,17.0145474 C211.055618,16.8872211 211.099286,16.7775158 211.187181,16.686 C211.277317,16.5910737 211.389846,16.5438947 211.523649,16.5438947 C211.658012,16.5438947 211.769981,16.5893684 211.860676,16.6814526 C211.950811,16.7729684 211.996158,16.8843789 211.996158,17.0145474 L211.996158,17.0145474 Z" id="Fill-87" fill="#856A1A" mask="url(#mask-2)"></path>
                    <path d="M216.656873,20.9267621 C216.656873,20.3554989 216.531467,19.9172463 216.280656,19.6125726 C216.032645,19.3073305 215.677143,19.1549937 215.213591,19.1549937 C214.752838,19.1549937 214.388378,19.3118779 214.120212,19.6256463 C213.852046,19.9365726 213.717683,20.3759621 213.717683,20.9443832 C213.717683,21.4894989 213.852046,21.9158147 214.120212,22.2233305 C214.391178,22.5285726 214.755637,22.6809095 215.213591,22.6809095 C215.679942,22.6809095 216.037124,22.5297095 216.285135,22.2278779 C216.533147,21.9260463 216.656873,21.4923411 216.656873,20.9267621 M217.39139,20.9000463 C217.39139,21.6225095 217.189286,22.2040042 216.783958,22.6450989 C216.381429,23.0833516 215.840618,23.3027621 215.160965,23.3027621 C214.499228,23.3027621 213.970174,23.0896042 213.573243,22.6632884 C213.179672,22.2341305 212.983166,21.6696884 212.983166,20.9710989 C212.983166,20.2190779 213.18527,19.6256463 213.590598,19.1902358 C213.995927,18.7525516 214.554653,18.5331411 215.266216,18.5331411 C215.930753,18.5331411 216.451409,18.7445937 216.827625,19.1680674 C217.203842,19.5886989 217.39139,20.1656463 217.39139,20.9000463" id="Fill-88" fill="#856A1A" mask="url(#mask-2)"></path>
                    <path d="M222.219218,23.1915789 L221.502056,23.1915789 L221.502056,20.5984421 C221.502056,19.6361053 221.154952,19.1546526 220.460743,19.1546526 C220.108041,19.1546526 219.812442,19.2910737 219.572828,19.5633474 C219.337133,19.8327789 219.219006,20.1778105 219.219006,20.5984421 L219.219006,23.1915789 L218.501284,23.1915789 L218.501284,18.6442105 L219.219006,18.6442105 L219.219006,19.3990737 L219.236361,19.3990737 C219.571708,18.8215579 220.061573,18.5333684 220.705956,18.5333684 C221.19862,18.5333684 221.573156,18.6959368 221.830125,19.0216421 C222.089334,19.3473474 222.219218,19.8089053 222.219218,20.4074526 L222.219218,23.1915789" id="Fill-89" fill="#856A1A" mask="url(#mask-2)"></path>
                    <path d="M117.480064,35.83008 C116.850237,36.1944379 116.150431,36.3763326 115.380643,36.3763326 C114.794485,36.3763326 114.271029,36.2416168 113.810276,35.9721853 C113.352882,35.7027537 112.99962,35.32248 112.752168,34.8307958 C112.504156,34.33968 112.380431,33.7843326 112.380431,33.1658905 C112.380431,32.1887747 112.684986,31.3821853 113.294098,30.7455537 C113.90377,30.1089221 114.683635,29.7906063 115.634253,29.7906063 C116.316705,29.7906063 116.889427,29.9031537 117.352979,30.1282484 L117.352979,30.9541642 C116.845759,30.6256168 116.245044,30.4613432 115.551396,30.4613432 C115.093442,30.4613432 114.680836,30.5738905 114.313577,30.7984168 C113.949118,31.0206695 113.663037,31.3361432 113.455894,31.7448379 C113.25211,32.1529642 113.150218,32.6077011 113.150218,33.1079116 C113.150218,33.9099537 113.356801,34.5437432 113.771087,35.0087116 C114.188172,35.4702695 114.755295,35.7010484 115.472458,35.7010484 C115.959523,35.7010484 116.383886,35.6004379 116.744986,35.3992168 L116.744986,33.6183537 L115.371685,33.6183537 L115.371685,32.9436379 L117.480064,32.9436379 L117.480064,35.83008" id="Fill-90" fill="#856A1A" mask="url(#mask-2)"></path>
                    <path d="M122.172857,34.0004463 C122.172857,33.4291832 122.047452,32.9909305 121.796641,32.6856884 C121.548629,32.3810147 121.193127,32.2286779 120.729575,32.2286779 C120.268822,32.2286779 119.904363,32.3855621 119.636197,32.6993305 C119.368031,33.0102568 119.233668,33.4496463 119.233668,34.0180674 C119.233668,34.5631832 119.368031,34.9894989 119.636197,35.2970147 C119.907162,35.6022568 120.271622,35.7545937 120.729575,35.7545937 C121.195927,35.7545937 121.553108,35.6033937 121.80112,35.3015621 C122.049131,34.9997305 122.172857,34.5660253 122.172857,34.0004463 M122.907375,33.9737305 C122.907375,34.6961937 122.70527,35.2776884 122.299942,35.7187832 C121.897413,36.1570358 121.356602,36.3764463 120.67695,36.3764463 C120.015212,36.3764463 119.486158,36.1632884 119.089228,35.7369726 C118.695656,35.3072463 118.499151,34.7433726 118.499151,34.0447832 C118.499151,33.2927621 118.701255,32.6993305 119.106583,32.26392 C119.511911,31.8262358 120.070637,31.6068253 120.782201,31.6068253 C121.446737,31.6068253 121.967394,31.8182779 122.34361,32.2417516 C122.719826,32.6623832 122.907375,33.2393305 122.907375,33.9737305" id="Fill-91" fill="#856A1A" mask="url(#mask-2)"></path>
                    <polygon id="Fill-92" fill="#856A1A" mask="url(#mask-2)" points="124.017548 36.2652632 124.73471 36.2652632 124.73471 29.5328842 124.017548 29.5328842"></polygon>
                    <path d="M129.255575,34.2091705 L129.255575,33.5384337 C129.255575,33.1627074 129.131849,32.8500758 128.883838,32.6016758 C128.638625,32.3527074 128.340228,32.2287916 127.986965,32.2287916 C127.555884,32.2287916 127.213259,32.39136 126.959089,32.7170653 C126.705479,33.0399284 126.578954,33.4884126 126.578954,34.0625179 C126.578954,34.58376 126.698201,34.9964337 126.937255,35.3016758 C127.176309,35.6035074 127.49878,35.7547074 127.904108,35.7547074 C128.29768,35.7547074 128.62127,35.60976 128.87488,35.3192968 C129.12849,35.0294021 129.255575,34.65936 129.255575,34.2091705 L129.255575,34.2091705 Z M129.972737,36.2651495 L129.255575,36.2651495 L129.255575,35.4926653 L129.23822,35.4926653 C128.905672,36.0815495 128.392293,36.37656 127.698645,36.37656 C127.132641,36.37656 126.682525,36.1702232 126.347178,35.7592547 C126.01183,35.3443074 125.843876,34.7923705 125.843876,34.1023074 C125.843876,33.3508547 126.029185,32.7466232 126.399243,32.2907495 C126.77266,31.8348758 127.271483,31.6069389 127.895151,31.6069389 C128.507622,31.6069389 128.955498,31.8524968 129.23822,32.3441811 L129.255575,32.3441811 L129.255575,29.5327705 L129.972737,29.5327705 L129.972737,36.2651495 Z" id="Fill-93" fill="#856A1A" mask="url(#mask-2)"></path>
                    <path d="M137.855195,36.0032779 C137.394442,36.2516779 136.818361,36.3761621 136.127512,36.3761621 C135.547512,36.3761621 135.032454,36.2448568 134.583458,35.9811095 C134.134461,35.7173621 133.787357,35.3444779 133.542705,34.8618884 C133.300851,34.3764568 133.179365,33.8228147 133.179365,33.2009621 C133.179365,32.5529621 133.315407,31.9680568 133.586373,31.4468147 C133.857338,30.9232989 134.238033,30.5157411 134.727898,30.2258463 C135.217763,29.9359516 135.767531,29.7904358 136.376643,29.7904358 C136.968959,29.7904358 137.461624,29.8779726 137.855195,30.0524779 L137.855195,30.8431516 C137.406199,30.5884989 136.910736,30.4611726 136.368245,30.4611726 C135.895736,30.4611726 135.475851,30.5720147 135.108593,30.7942674 C134.741334,31.01652 134.455253,31.3331305 134.251469,31.7446674 C134.049925,32.1562042 133.949153,32.6268568 133.949153,33.1566253 C133.949153,33.6602463 134.044326,34.10532 134.233554,34.4935516 C134.423342,34.8812147 134.691508,35.1802042 135.038612,35.39052 C135.385716,35.5974253 135.782087,35.7014463 136.228284,35.7014463 C136.85811,35.7014463 137.4006,35.5593411 137.855195,35.2751305 L137.855195,36.0032779" id="Fill-94" fill="#856A1A" mask="url(#mask-2)"></path>
                    <polygon id="Fill-95" fill="#856A1A" mask="url(#mask-2)" points="139.039324 36.2652632 139.756486 36.2652632 139.756486 29.5328842 139.039324 29.5328842"></polygon>
                    <path d="M144.539807,34.0004463 C144.539807,33.4291832 144.414402,32.9909305 144.163591,32.6856884 C143.915579,32.3810147 143.560077,32.2286779 143.096525,32.2286779 C142.635772,32.2286779 142.271313,32.3855621 142.003147,32.6993305 C141.734981,33.0102568 141.600618,33.4496463 141.600618,34.0180674 C141.600618,34.5631832 141.734981,34.9894989 142.003147,35.2970147 C142.274112,35.6022568 142.638571,35.7545937 143.096525,35.7545937 C143.562876,35.7545937 143.920058,35.6033937 144.168069,35.3015621 C144.416081,34.9997305 144.539807,34.5660253 144.539807,34.0004463 M145.274324,33.9737305 C145.274324,34.6961937 145.07222,35.2776884 144.666892,35.7187832 C144.264363,36.1570358 143.723552,36.3764463 143.0439,36.3764463 C142.382162,36.3764463 141.853108,36.1632884 141.456178,35.7369726 C141.062606,35.3072463 140.8661,34.7433726 140.8661,34.0447832 C140.8661,33.2927621 141.068205,32.6993305 141.473533,32.26392 C141.878861,31.8262358 142.437587,31.6068253 143.149151,31.6068253 C143.813687,31.6068253 144.334344,31.8182779 144.71056,32.2417516 C145.086776,32.6623832 145.274324,33.2393305 145.274324,33.9737305" id="Fill-96" fill="#856A1A" mask="url(#mask-2)"></path>
                    <path d="M150.001548,36.2652632 L149.284386,36.2652632 L149.284386,35.5456421 L149.267031,35.5456421 C148.969193,36.0992842 148.51012,36.3761053 147.889251,36.3761053 C146.818826,36.3761053 146.283614,35.7292421 146.283614,34.4355158 L146.283614,31.7178947 L147.001336,31.7178947 L147.001336,34.3201263 C147.001336,35.2762105 147.362436,35.7548211 148.085757,35.7548211 C148.441819,35.7548211 148.730139,35.6240842 148.951838,35.3637474 C149.173537,35.1005684 149.284386,34.7583789 149.284386,34.3377474 L149.284386,31.7178947 L150.001548,31.7178947 L150.001548,36.2652632" id="Fill-97" fill="#856A1A" mask="url(#mask-2)"></path>
                    <path d="M154.515863,34.2091705 L154.515863,33.5384337 C154.515863,33.1627074 154.392137,32.8500758 154.144125,32.6016758 C153.898913,32.3527074 153.600515,32.2287916 153.247253,32.2287916 C152.816172,32.2287916 152.473546,32.39136 152.219376,32.7170653 C151.965766,33.0399284 151.839241,33.4884126 151.839241,34.0625179 C151.839241,34.58376 151.958488,34.9964337 152.197542,35.3016758 C152.436597,35.6035074 152.759068,35.7547074 153.164396,35.7547074 C153.557967,35.7547074 153.881558,35.60976 154.135168,35.3192968 C154.388778,35.0294021 154.515863,34.65936 154.515863,34.2091705 L154.515863,34.2091705 Z M155.233025,36.2651495 L154.515863,36.2651495 L154.515863,35.4926653 L154.498508,35.4926653 C154.165959,36.0815495 153.652581,36.37656 152.958932,36.37656 C152.392929,36.37656 151.942813,36.1702232 151.607465,35.7592547 C151.272118,35.3443074 151.104164,34.7923705 151.104164,34.1023074 C151.104164,33.3508547 151.289473,32.7466232 151.659531,32.2907495 C152.032948,31.8348758 152.53177,31.6069389 153.155438,31.6069389 C153.767909,31.6069389 154.215786,31.8524968 154.498508,32.3441811 L154.515863,32.3441811 L154.515863,29.5327705 L155.233025,29.5327705 L155.233025,36.2651495 Z" id="Fill-98" fill="#856A1A" mask="url(#mask-2)"></path>
                    <path d="M161.917021,31.8378316 C161.917021,30.9942947 161.427156,30.5719579 160.447427,30.5719579 L159.585824,30.5719579 L159.585824,33.1832842 L160.355612,33.1832842 C160.860033,33.1832842 161.246326,33.0678947 161.514492,32.8371158 C161.782658,32.6029263 161.917021,32.2698316 161.917021,31.8378316 M162.686809,31.7980421 C162.686809,32.4136421 162.476867,32.9110105 162.056983,33.2901474 C161.639898,33.6658737 161.091809,33.8540211 160.412716,33.8540211 L159.585824,33.8540211 L159.585824,36.2652632 L158.850747,36.2652632 L158.850747,29.8972421 L160.574512,29.8972421 C161.244647,29.8972421 161.764183,30.0643579 162.131442,30.3991579 C162.5015,30.7305474 162.686809,31.1966526 162.686809,31.7980421" id="Fill-99" fill="#856A1A" mask="url(#mask-2)"></path>
                    <polygon id="Fill-100" fill="#856A1A" mask="url(#mask-2)" points="163.771062 36.2652632 164.488224 36.2652632 164.488224 29.5328842 163.771062 29.5328842"></polygon>
                    <path d="M168.392419,33.96492 L167.307998,34.1200989 C166.93738,34.1735305 166.678172,34.2639095 166.529253,34.3912358 C166.380334,34.51572 166.305875,34.7180779 166.305875,34.9994463 C166.305875,35.2273832 166.386492,35.4109832 166.546608,35.5502463 C166.707284,35.6866674 166.912747,35.7543095 167.163558,35.7543095 C167.51906,35.7543095 167.812419,35.6275516 168.042515,35.3728989 C168.275971,35.1182463 168.392419,34.7999305 168.392419,34.4179516 L168.392419,33.96492 M169.109581,36.26532 L168.392419,36.26532 L168.392419,35.5547937 L168.375064,35.5547937 C168.06267,36.1021832 167.603597,36.3761621 166.997284,36.3761621 C166.565643,36.3761621 166.220218,36.2579305 165.96045,36.0208989 C165.701241,35.7810253 165.571357,35.4598674 165.571357,35.0574253 C165.571357,34.2104779 166.064021,33.7159516 167.049909,33.5738463 L168.392419,33.3834253 C168.392419,32.6132147 168.085064,32.2283937 167.469793,32.2283937 C166.930102,32.2283937 166.443037,32.4136989 166.008597,32.7837411 L166.008597,32.0374042 C166.14016,31.9367937 166.364658,31.8407305 166.682091,31.7492147 C167.000083,31.6542884 167.282805,31.6071095 167.530817,31.6071095 C168.583326,31.6071095 169.109581,32.1738253 169.109581,33.3078253 L169.109581,36.26532" id="Fill-101" fill="#856A1A" mask="url(#mask-2)"></path>
                    <path d="M172.530853,36.2208695 C172.358981,36.3186379 172.134483,36.3675221 171.857359,36.3675221 C171.075815,36.3675221 170.685042,35.9201747 170.685042,35.0260484 L170.685042,32.3351432 L169.915255,32.3351432 L169.915255,31.7178379 L170.685042,31.7178379 L170.685042,30.6077116 L171.402205,30.3723853 L171.402205,31.7178379 L172.530853,31.7178379 L172.530853,32.3351432 L171.402205,32.3351432 L171.402205,34.9021326 C171.402205,35.2068063 171.45371,35.4245116 171.555602,35.55468 C171.657494,35.6820063 171.828247,35.7456695 172.067301,35.7456695 C172.245332,35.7456695 172.399849,35.6967853 172.530853,35.5990168 L172.530853,36.2208695 Z" id="Fill-102" fill="#856A1A" mask="url(#mask-2)"></path>
                    <path d="M175.694093,30.1725284 C175.554131,30.0923811 175.395135,30.0525916 175.217104,30.0525916 C174.716042,30.0525916 174.465232,30.3737495 174.465232,31.0160653 L174.465232,31.7180653 L175.514942,31.7180653 L175.514942,32.3353705 L174.465232,32.3353705 L174.465232,36.2654337 L173.74751,36.2654337 L173.74751,32.3353705 L172.98668,32.3353705 L172.98668,31.7180653 L173.74751,31.7180653 L173.74751,30.9808232 C173.74751,30.5186968 173.881873,30.1458126 174.150039,29.8616021 C174.418205,29.5773916 174.75971,29.4352863 175.173436,29.4352863 C175.392336,29.4352863 175.565888,29.4620021 175.694093,29.5154337 L175.694093,30.1725284 Z" id="Fill-103" fill="#856A1A" mask="url(#mask-2)"></path>
                    <path d="M179.608533,34.0004463 C179.608533,33.4291832 179.483127,32.9909305 179.232317,32.6856884 C178.984305,32.3810147 178.628803,32.2286779 178.165251,32.2286779 C177.704498,32.2286779 177.340039,32.3855621 177.071873,32.6993305 C176.803707,33.0102568 176.669344,33.4496463 176.669344,34.0180674 C176.669344,34.5631832 176.803707,34.9894989 177.071873,35.2970147 C177.342838,35.6022568 177.707297,35.7545937 178.165251,35.7545937 C178.631602,35.7545937 178.988784,35.6033937 179.236795,35.3015621 C179.484807,34.9997305 179.608533,34.5660253 179.608533,34.0004463 M180.34305,33.9737305 C180.34305,34.6961937 180.140946,35.2776884 179.735618,35.7187832 C179.333089,36.1570358 178.792278,36.3764463 178.112625,36.3764463 C177.450888,36.3764463 176.921834,36.1632884 176.524903,35.7369726 C176.131332,35.3072463 175.934826,34.7433726 175.934826,34.0447832 C175.934826,33.2927621 176.136931,32.6993305 176.542259,32.26392 C176.947587,31.8262358 177.506313,31.6068253 178.217876,31.6068253 C178.882413,31.6068253 179.403069,31.8182779 179.779286,32.2417516 C180.155502,32.6623832 180.34305,33.2393305 180.34305,33.9737305" id="Fill-104" fill="#856A1A" mask="url(#mask-2)"></path>
                    <path d="M183.788732,32.45508 C183.660527,32.3573116 183.478017,32.3084274 183.241763,32.3084274 C182.92433,32.3084274 182.666241,32.4607642 182.468056,32.7660063 C182.269311,33.0678379 182.170218,33.4617537 182.170218,33.9471853 L182.170218,36.2652063 L181.453056,36.2652063 L181.453056,31.7178379 L182.170218,31.7178379 L182.170218,32.6551642 L182.188133,32.6551642 C182.287226,32.3413958 182.440064,32.0941326 182.647207,31.9133747 C182.854349,31.7297747 183.091724,31.6382589 183.35989,31.6382589 C183.546878,31.6382589 183.689639,31.6587221 183.788732,31.7002168 L183.788732,32.45508 Z" id="Fill-105" fill="#856A1A" mask="url(#mask-2)"></path>
                    <path d="M190.929842,36.2652632 L190.21268,36.2652632 L190.21268,33.6539368 C190.21268,33.1446316 190.135421,32.7808421 189.980903,32.5614316 C189.829185,32.3397474 189.572776,32.2283368 189.211116,32.2283368 C188.90488,32.2283368 188.643992,32.3704421 188.427892,32.6546526 C188.215151,32.9388632 188.10878,33.2782105 188.10878,33.6721263 L188.10878,36.2652632 L187.391618,36.2652632 L187.391618,33.5652632 C187.391618,32.6739789 187.051792,32.2283368 186.372139,32.2283368 C186.057506,32.2283368 185.797737,32.3630526 185.593954,32.6324842 C185.38961,32.8990737 185.287718,33.2458105 185.287718,33.6721263 L185.287718,36.2652632 L184.570556,36.2652632 L184.570556,31.7178947 L185.287718,31.7178947 L185.287718,32.4375158 L185.305073,32.4375158 C185.623066,31.8838737 186.084938,31.6070526 186.691811,31.6070526 C186.98349,31.6070526 187.245498,31.6894737 187.478954,31.8554526 C187.712409,32.0214316 187.874205,32.2539158 187.96434,32.5529053 C188.296888,31.9219579 188.792351,31.6070526 189.45129,31.6070526 C190.437178,31.6070526 190.929842,32.2254947 190.929842,33.4629474 L190.929842,36.2652632 Z" id="Fill-106" fill="#856A1A" mask="url(#mask-2)"></path>
                    <path d="M117.480064,48.9037642 C116.850237,49.2681221 116.150431,49.4500168 115.380643,49.4500168 C114.794485,49.4500168 114.271029,49.3153011 113.810276,49.0458695 C113.352882,48.7764379 112.99962,48.3961642 112.752168,47.90448 C112.504156,47.4133642 112.380431,46.8580168 112.380431,46.2395747 C112.380431,45.2624589 112.684986,44.4553011 113.294098,43.8192379 C113.90377,43.1826063 114.683635,42.8642905 115.634253,42.8642905 C116.316705,42.8642905 116.889427,42.9768379 117.352979,43.2019326 L117.352979,44.0278484 C116.845759,43.6993011 116.245044,43.5350274 115.551396,43.5350274 C115.093442,43.5350274 114.680836,43.6475747 114.313577,43.8721011 C113.949118,44.0943537 113.663037,44.4098274 113.455894,44.8185221 C113.25211,45.2266484 113.150218,45.6813853 113.150218,46.1815958 C113.150218,46.9836379 113.356801,47.6174274 113.771087,48.0823958 C114.188172,48.5439537 114.755295,48.7747326 115.472458,48.7747326 C115.959523,48.7747326 116.383886,48.6741221 116.744986,48.4729011 L116.744986,46.6920379 L115.371685,46.6920379 L115.371685,46.0173221 L117.480064,46.0173221 L117.480064,48.9037642" id="Fill-107" fill="#856A1A" mask="url(#mask-2)"></path>
                    <path d="M122.172857,47.0741305 C122.172857,46.5028674 122.047452,46.0646147 121.796641,45.7593726 C121.548629,45.4546989 121.193127,45.3023621 120.729575,45.3023621 C120.268822,45.3023621 119.904363,45.4592463 119.636197,45.7730147 C119.368031,46.0839411 119.233668,46.5233305 119.233668,47.0917516 C119.233668,47.6368674 119.368031,48.0631832 119.636197,48.3706989 C119.907162,48.6759411 120.271622,48.8282779 120.729575,48.8282779 C121.195927,48.8282779 121.553108,48.6770779 121.80112,48.3752463 C122.049131,48.0734147 122.172857,47.6397095 122.172857,47.0741305 M122.907375,47.0474147 C122.907375,47.7698779 122.70527,48.3513726 122.299942,48.7924674 C121.897413,49.23072 121.356602,49.4501305 120.67695,49.4501305 C120.015212,49.4501305 119.486158,49.2369726 119.089228,48.8106568 C118.695656,48.3814989 118.499151,47.8170568 118.499151,47.1184674 C118.499151,46.3664463 118.701255,45.7730147 119.106583,45.3376042 C119.511911,44.89992 120.070637,44.6805095 120.782201,44.6805095 C121.446737,44.6805095 121.967394,44.8919621 122.34361,45.3154358 C122.719826,45.7360674 122.907375,46.3130147 122.907375,47.0474147" id="Fill-108" fill="#856A1A" mask="url(#mask-2)"></path>
                    <polygon id="Fill-109" fill="#856A1A" mask="url(#mask-2)" points="124.017548 49.3389474 124.73471 49.3389474 124.73471 42.6065684 124.017548 42.6065684"></polygon>
                    <path d="M129.255575,47.2828547 L129.255575,46.6121179 C129.255575,46.2363916 129.131849,45.92376 128.883838,45.67536 C128.638625,45.4263916 128.340228,45.3024758 127.986965,45.3024758 C127.555884,45.3024758 127.213259,45.4650442 126.959089,45.7907495 C126.705479,46.1136126 126.578954,46.5620968 126.578954,47.1362021 C126.578954,47.6574442 126.698201,48.0701179 126.937255,48.37536 C127.176309,48.6771916 127.49878,48.8283916 127.904108,48.8283916 C128.29768,48.8283916 128.62127,48.6834442 128.87488,48.3929811 C129.12849,48.1030863 129.255575,47.7330442 129.255575,47.2828547 L129.255575,47.2828547 Z M129.972737,49.3388337 L129.255575,49.3388337 L129.255575,48.5663495 L129.23822,48.5663495 C128.905672,49.1552337 128.392293,49.4502442 127.698645,49.4502442 C127.132641,49.4502442 126.682525,49.2444758 126.347178,48.8329389 C126.01183,48.4179916 125.843876,47.8660547 125.843876,47.17656 C125.843876,46.4245389 126.029185,45.8203074 126.399243,45.3644337 C126.77266,44.90856 127.271483,44.6806232 127.895151,44.6806232 C128.507622,44.6806232 128.955498,44.9261811 129.23822,45.4178653 L129.255575,45.4178653 L129.255575,42.6064547 L129.972737,42.6064547 L129.972737,49.3388337 Z" id="Fill-110" fill="#856A1A" mask="url(#mask-2)"></path>
                    <path d="M137.863929,46.0927516 C137.863929,44.4613832 137.011284,43.6456989 135.305434,43.6456989 L134.325705,43.6456989 L134.325705,48.66372 L135.257288,48.66372 C136.085299,48.66372 136.726882,48.4403305 137.181477,47.9935516 C137.636631,47.5433621 137.863929,46.9095726 137.863929,46.0927516 M138.633716,46.0751305 C138.633716,46.7231305 138.493755,47.2960989 138.213832,47.7934674 C137.933909,48.2879937 137.535859,48.6699726 137.019681,48.9394042 C136.503504,49.2059937 135.913427,49.3390042 135.24833,49.3390042 L133.590627,49.3390042 L133.590627,42.9709832 L135.32279,42.9709832 C137.530261,42.9709832 138.633716,44.0055095 138.633716,46.0751305" id="Fill-111" fill="#856A1A" mask="url(#mask-2)"></path>
                    <path d="M142.603637,46.63008 C142.598039,46.2094484 142.497266,45.8843116 142.30188,45.6529642 C142.109293,45.4193432 141.836649,45.3022484 141.483946,45.3022484 C141.151398,45.3022484 140.866996,45.4238905 140.631301,45.6666063 C140.395046,45.9093221 140.246127,46.23048 140.185104,46.63008 L142.603637,46.63008 L142.603637,46.63008 Z M143.338154,47.2473853 L140.176147,47.2473853 C140.187903,47.7595326 140.320587,48.1517432 140.574197,48.4240168 C140.830606,48.6934484 141.184988,48.8281642 141.636784,48.8281642 C142.144564,48.8281642 142.606436,48.6627537 143.023521,48.3307958 L143.023521,49.0100589 C142.632749,49.3033642 142.113772,49.4500168 141.466591,49.4500168 C140.827807,49.4500168 140.329544,49.2414063 139.970683,48.8236168 C139.611822,48.4035537 139.432672,47.8231958 139.432672,47.0831116 C139.432672,46.6329221 139.521687,46.2230905 139.699718,45.8530484 C139.879988,45.4801642 140.128,45.1914063 140.443193,44.9867747 C140.757826,44.7827116 141.10773,44.6803958 141.492903,44.6803958 C142.072903,44.6803958 142.524699,44.8730905 142.84829,45.2579116 C143.175239,45.6398905 143.338154,46.1759116 143.338154,46.8654063 L143.338154,47.2473853 Z" id="Fill-112" fill="#856A1A" mask="url(#mask-2)"></path>
                    <path d="M147.907782,44.7915789 L146.122994,49.3389474 L145.41479,49.3389474 L143.721817,44.7915789 L144.513998,44.7915789 L145.651044,48.0912632 C145.712068,48.2657684 145.761894,48.4789263 145.799403,48.7307368 L145.821237,48.7307368 C145.84755,48.5113263 145.894577,48.3055579 145.961199,48.1134316 L147.155349,44.7915789 L147.907782,44.7915789" id="Fill-113" fill="#856A1A" mask="url(#mask-2)"></path>
                    <path d="M153.523705,46.1726716 C153.523705,45.3439137 153.332797,44.6970505 152.950983,44.2320821 C152.568608,43.7671137 152.036755,43.5346295 151.354303,43.5346295 C150.925461,43.5346295 150.540847,43.64604 150.199902,43.8677242 C149.861195,44.0871347 149.599187,44.3991979 149.412199,44.8050505 C149.22577,45.2103347 149.132276,45.6633663 149.132276,46.1635768 C149.132276,46.6728821 149.221292,47.1276189 149.399322,47.5272189 C149.580153,47.9239768 149.836562,48.2314926 150.16911,48.4509032 C150.501658,48.6669032 150.878994,48.7749032 151.301678,48.7749032 C151.995886,48.7749032 152.539496,48.5441242 152.933068,48.0819979 C153.326639,47.62044 153.523705,46.9838084 153.523705,46.1726716 M154.293492,46.0749032 C154.293492,46.7530295 154.170886,47.3481663 153.926234,47.8603137 C153.68382,48.3696189 153.333917,48.7618295 152.876523,49.0369453 C152.421369,49.3120611 151.896793,49.4501874 151.301678,49.4501874 C150.727276,49.4501874 150.215577,49.3166084 149.766581,49.0500189 C149.320384,48.7811558 148.974959,48.4003137 148.729747,47.9091979 C148.485095,47.4146716 148.362488,46.8553453 148.362488,46.2306505 C148.362488,45.5582084 148.486774,44.9664821 148.734226,44.4543347 C148.982237,43.9421874 149.337739,43.5494084 149.801851,43.2771347 C150.265403,43.0020189 150.801736,42.8644611 151.411407,42.8644611 C151.967894,42.8644611 152.466716,42.9991768 152.906755,43.2686084 C153.350153,43.53804 153.691098,43.9166084 153.930712,44.4054505 C154.172566,44.8937242 154.293492,45.4502084 154.293492,46.0749032" id="Fill-114" fill="#856A1A" mask="url(#mask-2)"></path>
                    <path d="M158.807919,46.9187242 C158.807919,46.42704 158.69427,46.0348295 158.466973,45.7420926 C158.239116,45.4487874 157.925602,45.3021347 157.526432,45.3021347 C157.115506,45.3021347 156.781278,45.4470821 156.524869,45.7375453 C156.268459,46.02744 156.139695,46.3974821 156.139695,46.8476716 L156.139695,47.4825979 C156.139695,47.8645768 156.262301,48.1845979 156.507514,48.4420926 C156.754965,48.6995874 157.060081,48.8280505 157.421181,48.8280505 C157.852822,48.8280505 158.190969,48.6592295 158.436181,48.3221558 C158.684193,47.9845137 158.807919,47.5167032 158.807919,46.9187242 M159.542436,46.9278189 C159.542436,47.6974611 159.357687,48.3102189 158.987069,48.7660926 C158.617012,49.2219663 158.120988,49.4499032 157.50012,49.4499032 C156.911162,49.4499032 156.463846,49.1952505 156.15761,48.6859453 L156.139695,48.6859453 L156.139695,51.4302821 L155.422533,51.4302821 L155.422533,44.7916926 L156.139695,44.7916926 L156.139695,45.5908926 L156.15761,45.5908926 C156.510313,44.9838189 157.02649,44.6802821 157.705583,44.6802821 C158.265429,44.6802821 158.711625,44.8820716 159.044174,45.2845137 C159.376722,45.6869558 159.542436,46.2349137 159.542436,46.9278189" id="Fill-115" fill="#856A1A" mask="url(#mask-2)"></path>
                    <path d="M163.08973,48.1221853 C163.08973,48.5161011 162.939691,48.8355537 162.639054,49.0811116 C162.341776,49.3272379 161.945405,49.4500168 161.449382,49.4500168 C161.026699,49.4500168 160.656641,49.3579326 160.338649,49.1749011 L160.338649,48.3933221 C160.691351,48.6832168 161.079324,48.8281642 161.502008,48.8281642 C162.070811,48.8281642 162.355212,48.6167116 162.355212,48.1932379 C162.355212,48.0215747 162.299788,47.8823116 162.188938,47.7760168 C162.078089,47.6663116 161.825598,47.5196589 161.432027,47.3360589 C161.035656,47.1643958 160.755734,46.9807958 160.592259,46.7852589 C160.428784,46.58688 160.347606,46.3254063 160.347606,45.9997011 C160.347606,45.6234063 160.495965,45.3096379 160.793243,45.0578274 C161.091081,44.8065853 161.468417,44.6803958 161.926371,44.6803958 C162.279073,44.6803958 162.598185,44.7514484 162.884266,44.8935537 L162.884266,45.6262484 C162.592587,45.4102484 162.25444,45.3022484 161.869266,45.3022484 C161.633012,45.3022484 161.442104,45.3613642 161.296544,45.4801642 C161.153784,45.5983958 161.082124,45.7507326 161.082124,45.9371747 C161.082124,46.1383958 161.137548,46.2941432 161.248398,46.4038484 C161.359247,46.5101432 161.588224,46.6374695 161.935328,46.7852589 C162.360811,46.9688589 162.659768,47.1615537 162.831641,47.3627747 C163.003514,47.5639958 163.08973,47.8175116 163.08973,48.1221853" id="Fill-116" fill="#856A1A" mask="url(#mask-2)"></path>
                </g>
            </g>
        </g>
    </g>
</svg>